<svg id="Layer_1" data-name="Layer 1" xmlns="http://www.w3.org/2000/svg" viewBox="0 0 291.2 373.74"><defs><style>.cls-1{fill:#4a7e01;}.cls-2{fill:#4c7d0e;}.cls-3{fill:#537333;}.cls-4{fill:#4f7a1f;}.cls-5{fill:#345511;}.cls-6{fill:#fefefe;}</style></defs><path class="cls-1" d="M688.75,151.64c.27-1,.55-1.92.82-2.88q-1.85-4.66-3.67-9.32c-2.79-1.95-5.07-3.45-7.22,1.24-.69,1.5-3.07,4.68-6.47,3.29l-2.31,4.53c1.28,1.46,0,3-.37,4.11-1.22,4.2-1.39,7.58,3.58,9.32,1.11.38,2.23,2.07,1.19,2.65-4.56,2.56-5.43,9.79-12.1,9.5-2.37-.1-3.59,1.25-4.39,3.23,1.27,1.28,2.12,3.1,4.25,3.27,3.27.34,7.8-1.05,6.94,5a15.7,15.7,0,0,1,7.21,4l5.47,2.63c.67-1.74-1.32-2.35-2.13-3.87,2.24.29,3.92.48,5.6.72,6.62.94,7,1.54,5.55,8-.64,2.78-.64,2.78,2.25,6.43-3.4.54-4.81,3.25-6.63,5.53.31,2.85-3.37,4.61-2.11,7.72a4.31,4.31,0,0,1,5.14-1.82c2.83.69,4.81,3.66,8.32,2.83.63-.15,2.94,1.89,2.28,4.24s-.86,4.86-1.59,7.19c-1,3-.75,5,1.78,7.76,3,3.31,4.15,8.32,6,12.63.51,1.18.13,3,1.54,3.48,5.12,1.72,4.33,5.83,4.21,9.72h0c.61.5.5.8-.26.92a2,2,0,0,0,.45,2.22c2.86,1.21,2.2,3.4,1.58,5.59.3.11.6.21.9.29a2,2,0,0,1,.49,2.18c.23,2,1.64,2.61,3.29,3,5.86,1.7,4.45,7,5.15,11s4.27,7.95,8.1,7.93c2.21,0,4.63,4.82,3.07,6.74-1.7,2.1-2.4,4.56-3.53,6.86l.73,1.22a7.79,7.79,0,0,1,7.34,3.86c.43.69,1.14,1.95.92,2.18-4.35,4.52.79,4.76,2.81,6.39l1.91.51c4.81,2.14,10.19-.24,15.06,2,2.63,1.22,5.8,1.19,7.8,3.88.77,1,2.28,1.14,3.68.94,8.2-1.13,9.5.13,8.9,8.3-.27,3.7.44,7.86-4.74,8.91l-1.33,4.81a7.55,7.55,0,0,1,1.06,1.77c2.36-.08,4.71-.23,7.07-.45a160.66,160.66,0,0,0,29-7.64c2.23-1,4.42-2.15,6.56-3.36a100.86,100.86,0,0,1,6.85-7.47l-2.09-.58c-3.12-.39-4.06-2-2.81-4.91.72-2.56,1.43-5.13,2.15-7.69,3.57-2.92,5.73-7,8.57-10.44,2-2.4,2.65-5.21,4.35-7.59,1.11-1.55-.1-2.51-1.75-2.34a14.51,14.51,0,0,1-5.33-.86c-1.46,5.26-10.91,11-16.15,9.88-2.15-.47-2.57-1.92-2.09-3.75,1.19-4.49,2.49-8.95,3.68-13.44.56-2.13,1.94-2.67,3.74-1.84,2.47,1.14,4.79.26,7.17-.16.19-.63.18-1.56.61-1.86,6.29-4.38,3-8.79.18-13.28-1-1.53-2.14-3.18-2.32-4.88-.34-3.11-2.34-4.23-4.77-4.9-1.28-.36-2.6-.18-3.07-1.88-.66-2.36-2.09-1.72-3.87-1.1-4.51,1.57-5.89.38-5-4.16.39-2-.94-2.61-2.16-2.49-2.56.26-6-1.07-6.67,3.49a4.42,4.42,0,0,1-4,3.35c-5,.21-6.14,3.62-6.89,7.55-.16.81-.43,1.6-.65,2.4-1.52,5.27-2,5.39-6.21,1.56a5.65,5.65,0,0,0-1.31-.7l-.94-.25c-1.32.38-1.44,1.57-1.77,2.63a1.54,1.54,0,0,1,.24,2.07c-.07.09-.29.09-.43.14l.18-2.21c-1.48.6-1.62,2-1.91,3.28-.76,3.27-1.84,6.05-6,5.92S762,283.58,762,280c0-3.85.15-7.71.24-11.56l-1.9-.55c-1.6-5.53-6.89-8.13-9.82-12.37-2.44-3.52-4.67-8.05-3.14-13.65.93-3.4-1.43-7.74.53-11.61l-1.64-1.51c-4.93,1-9,.93-11.6-4.77-1.42-3.18.1-5.4.67-7.94.65-2.81.65-4.89-2.69-5.59l-2.87-.79c-5.75-1.15-4.52-5.68-4.62-9.57-3.36-2.81.33-5.48.17-8.23l-2.38-.67c-8.35-2.32-8.51-2.35-6.69-11.13.63-3.08-2.47-5.55-.84-8.56v0c-2.4-.67-4.81-1.32-7.21-2-.77-.23-1.75-.47-1.58-1.55a1.6,1.6,0,0,1,1.87-1.25c4.31.34,3.95-1.73,2.45-4.53-.53-1-1.26-2.16-1.18-3.19.25-3.23-1.06-5.25-4.19-5.69-2.16-.3-1.67-2.58-3.25-3.63-1.55,2.37-2.9,5.25-2.14,7.43,1.79,5.15-2.22,6.47-4.85,8.47-2.82,2.15-5.93.07-8.37-1.15C683.17,162.44,684.58,153.88,688.75,151.64Z" transform="translate(-589.65 19.3)"/><path class="cls-2" d="M777.13,274.58c-1.32.38-1.44,1.57-1.77,2.63h0c-1.48.6-1.62,2-1.91,3.28-.76,3.27-1.84,6.05-6,5.92S762,283.58,762,280c0-3.85.15-7.71.24-11.56,2.45.43,3.51,1.31,3.15,4.32a10.36,10.36,0,0,0,3.66,8.86c4.41-1.84,2.78-4.37.8-6.95v0a6.21,6.21,0,0,0,.07-4.08c.18-1.84,1.89-3.54.68-5.49-2.3-3.74-2.78-8.08-4.15-12.12l-4.77-1.33,0,0c-.7-2.61,1.95-6.07-2-7.84l0,0a4.8,4.8,0,0,0-1.85-4.66h0a1.78,1.78,0,0,0-1.4-2.46h0c.69-2.54-1.54-4.24-1.9-6.52-.22-1.4-1.59-1.71-2.76-1.12-1.92,1-.07,2.26.3,2.62a16.55,16.55,0,0,1,3.4,4.75c-1.08,1.23-3.46,1.9-1.84,4.28-2.58,1.59,1.69,3.53-.16,4.94-3.41,2.59,0,3.5,1.22,3.85,3,.87,4.19,2.18,3.08,5.32-.55,1.56.77,2.84,1.51,4.06,1.74,2.87,2.38,5.77,1,8.94-1.6-5.53-6.89-8.13-9.82-12.37-2.44-3.52-4.67-8.05-3.14-13.65.93-3.4-1.43-7.74.53-11.61a2.26,2.26,0,0,0,.74-3.9c-1.88-1.09-1.83,1.27-2.38,2.39-4.93,1-9,.93-11.6-4.77-1.42-3.18.1-5.4.67-7.94.65-2.81.65-4.89-2.69-5.59.55-.57,1-1.42,1.67-1.68,3.69-1.38,5.45-4.65,4.61-7.78s-2.18-7.14-6.86-7.24v0c2.8-6.23,2.8-6.23-4.06-11.5h0c.93-2.67.69-5.1,0-8-1.29-5.76-6.21-10.16-5.72-16.43,4.52,2.47,5,7.18,6.35,11.41.36,1.11,0,3.11,2.07,2.67,1.74-.36,3.58-1.83,2.8-3.45-1.3-2.71.32-5.53-1.19-8.19s.06-4,2.85-4.08c-.18.81-.71,1.74-.49,2.42a67.76,67.76,0,0,1,3.22,25c-.1,1.76.36,3.7,2.69,4.22,1.32.29,1.28,1.7,1.87,2.45,2.26,2.82,1.88,8.07,7.15,8.21l1.74.58,0,0c-.27,2,.3,3.59,2.29,4.5,1.09-1.7-.43-2.66-.39-3.88a10.56,10.56,0,0,0-1-8.62c-4.57-8.68-6-18-6.82-27.57-.49-5.62-1-6.32-3.89-7.55l-1.92-.53-3.87-1.1c1.1-3.13.56-8.52,6.69-4.52,1.37.9,2.81-.3,3.37-2,2.92.47,0,4.33,2.84,4.86-.4,2.68,1.85,2.4,3.32,3v0a5.78,5.78,0,0,0,2.24,6.84h0c-3.28,4,.48,4,2.74,4.93,1.09,2.05-1,4.28.36,6.31.63,2.89,1.14,5.85,4.19,7.37h0c-.12,1.11-.65,3-.31,3.22,3.17,1.58,2.34,4.17,2.14,6.71,0,.39.84.86,1.29,1.29h0a1.82,1.82,0,0,0,1.37,2.47c.85,4.58,3.17,8.42,6,12-1.49.7-2,2.08-1.24,3.29,1.72,2.78,2.49,6.19,5.34,8.22a6.56,6.56,0,0,0,.89,4.25,64.45,64.45,0,0,1,5.55,15.23c1.45,6.31,3.71,11.51,8.21,15.68.73.68,4.86,2.66,6.12-1.33l2.17-.4c-.13.78-.33,2.34,0,2.19,2.74-1.13,6.51.18,8.32-2.07,2.7-3.37,6.95-4.16,9.83-7.16,1.6-1.67,4.29-3.27,6.69-2.61,3.67,1,3.09-1.54,3.62-3.35a13.2,13.2,0,0,1,8.54,6.5l-.33.34.33-.34c4.15,4.09,8.79-2.29,13,.59a4.94,4.94,0,0,0,.57-.75c1.46-2.28,3.42-1.29,5.3-.82l2,.54c-.69,2.72-1.32,5.39,3.17,3.86a2.78,2.78,0,0,0,3.37-1.06l5.06.41a10.33,10.33,0,0,1,.56,9c-1.56,3.82-.51,7.54-.23,11.8,1.8-1.12,1.82-3.68,4.06-3.05L867.27,286c-6.12.12-11.88-3.12-18.11-1.91.8-2.91,1.6-5.81,2.39-8.72.4-.68.69-1.83,1.22-1.95,1.26-.27,1,.91,1,1.65-.18,2.46,1.74,2.47,3.29,2.81,2.1.46,2.44-1.17,2.85-2.61,1.46-5.25,3-10.5,4.31-15.78.5-1.95.59-4.13-2-4.9s-4.45.54-5.6,2.77a5.79,5.79,0,0,0-.82,3.33c.56,3.41-1.22,5.64-3.4,7.78-2.72-.47-2.3,1.94-3,3.31-4.43,2.48-4,7.63-6,11.43-1.2,2.34-3.84,3.63-4.13,6.42-2.66-.3-5.07-2.33-7.94-1.13-.74.14-.86.45-.28,1-1.76,2.32-4.62,1.34-6.83,2.29l0,0c.19-.63.18-1.56.61-1.86,6.29-4.38,3-8.79.18-13.28-1-1.53-2.14-3.18-2.32-4.88-.34-3.11-2.34-4.23-4.77-4.9-1.28-.36-2.6-.18-3.07-1.88-.66-2.36-2.09-1.72-3.87-1.1-4.51,1.57-5.89.38-5-4.16.39-2-.94-2.61-2.16-2.49-2.56.26-6-1.07-6.67,3.49a4.42,4.42,0,0,1-4,3.35c-5,.21-6.14,3.62-6.89,7.55-.16.81-.43,1.6-.65,2.4-1.52,5.27-2,5.39-6.21,1.56a5.65,5.65,0,0,0-1.31-.7c-.06-.14-.12-.42-.16-.42A5.16,5.16,0,0,0,777.13,274.58Zm-1.93-19.2.77,1.23.63,1.13c-.44,1.42-.89,2.83,1,3.54-.38,2.73-2.06,5.18-1.31,8.21.3,1.25-.3,2.78,1.47,3.13s3.75,2.25,5.18-.56c4.49-1.57.32-4,.61-6a21.47,21.47,0,0,0,.26-4.23c.12-4.05-4.94-5.1-4.69-8.75.2-2.8-1.41-3.31-3.39-3.79a4.58,4.58,0,0,1,.13-.74c2.49-8,2.49-8-3.27-10.43h0c-.2-2.94-2.14-5.82.19-8.85.64-.84.18-3.45-1-3.25-3,.53-2.3-2.09-2.64-3-1.36-3.45-2.76-2.82-4.59-.59-.92,1.66.13,2.9.88,4.21-2.29,7.44,2.46,13,5.11,19.12h0c.27,3.79-.47,8.08,4.61,9.55Zm49.48-2.87-1.9-.57c-1.61.72-3.89-1-4.91,2.22-1.76,5.59-1.1,7.91,4.19,10.24a2.4,2.4,0,0,1,1.09,1.49c.46,1.86,1,3.66,3.39,3.37s2.39-2.39,2.92-4.07c1.28-3.21,3.5-6.1,3.45-9.75,0-1.94-.52-2.18-2.46-1.34l-1.89-.55C827.45,252.49,827.08,248.7,824.68,252.51Zm-78.77-30.45c.63-2.62-2.84-9.47-5.27-10.88-1.76-1-2.22.07-2,1.35a11.75,11.75,0,0,0,1.73,4c.57.9,1.1,1.33-.47,1.14a2.24,2.24,0,0,0-2.58,3.11c.91,1.91,2.58,4.14,4.41,4.72S745,223.64,745.91,222.06Zm93.29,45.33c-2.41,3.1-2.45,5.79-3.25,8.21-.3.9-.64,2.13.65,2.45,1,.25,1.76-.64,2.14-1.62C839.78,273.82,839.64,271.15,839.2,267.39Z" transform="translate(-589.65 19.3)"/><path class="cls-2" d="M857.77,297.93c.94-5.1-.24-5.66-5.11-5.79-7.44-.19-13.59,2.49-19.26,6.66-1.78,1.31-4.53-.46-5.55,2.24a14.56,14.56,0,0,0,5.34.86c1.65-.17,2.86.79,1.75,2.34-1.7,2.38-2.38,5.19-4.35,7.59-2.84,3.47-5,7.52-8.57,10.44l3.82,1.05a2.26,2.26,0,0,1,2.25-.48c1.07-3.48,5.1-3.76,7.12-6.69,1.67-2.4,5.38,1.29,5,6.09C843,317.7,842,312,845.63,308c1-1.83,1.66-2,2,.4a38.74,38.74,0,0,1,.26,6.87c.86-1,1.71-2.06,2.55-3.1q2.67-3.45,5.3-6.92C856.08,302.75,856.34,300.19,857.77,297.93Z" transform="translate(-589.65 19.3)"/><path class="cls-3" d="M827.49,238.73c-.53,1.81,0,4.37-3.62,3.35-2.4-.66-5.09.94-6.69,2.61-2.88,3-7.13,3.79-9.83,7.16-1.81,2.25-5.58.94-8.32,2.07-.36.15-.16-1.41,0-2.19,1.94.37,2.35-1,2.74-2.39,4.73-1.24,8.55-3.87,12.35-7,6.72-5.5,15-8,23.3-10.12,5.57-1.4,10.89-4.05,16.88-3.43,2.31.24,4.65.3,7,.45,4.15,3.39,9.41,3.58,14.26,4.93,2.14.2,3.57,1.79,5.35,2.69l-.53,1.92c-3.53-1-7.07-2.35-10.49.32-.61-.16-1.38-.37-1.46.52a2.15,2.15,0,0,0,1.65,2.55v0l-.62,2.86c-1.94.45-1,1.84-.94,2.93l-5.06-.41c.22-1.69,1.72-4.15-.72-4.68-2-.43-1.5,2.44-2.16,3.81a10.3,10.3,0,0,0-.49,1.93c-4.49,1.53-3.86-1.14-3.17-3.86a1.83,1.83,0,0,0-1.62-1.51h0c.66-2.09-1-2.31-2.28-2.91-.51-2-1.46-3.91-1.41-5.84.08-2.8-.42-3-3-2.12-6.2,2.07-11.49,7.75-19,5.09C829,237.32,828.17,238.29,827.49,238.73Zm37.33-.07c.38-2.58-.93-3.49-3.17-3.47,1,1.26,1.34,3.06,3.15,3.48-.15,1.15-.26,2.32,1,3a.66.66,0,0,0,1-.6C866.91,239.65,866,239.06,864.82,238.66Z" transform="translate(-589.65 19.3)"/><path class="cls-3" d="M839.28,289.65v0c4.5-1.09,9.08-1.94,13.46-3.36,2.27-.73,4.27.13,6.39,0,1.46-.09,1.48,1.07,1.14,2.1s-1.37,1.76-2.12.53c-1.41-2.31-3-1.23-4.73-.68-6.3,2-12.78,3.5-18.92,6.08-2.54,1.07-5.25,2.19-8.16,1.06l-.08,0q-1.14,2.24-2.29,4.47l3.88,1.1c1-2.69,3.76-.92,5.54-2.23,5.67-4.17,11.82-6.85,19.26-6.66,4.87.13,6.05.69,5.11,5.79a14.66,14.66,0,0,1,.87,3.51c2.27-3,4.54-6,6.84-8.92l1.79-6.5c-6.12.12-11.88-3.12-18.11-1.91-1.11.95-2.68,2-1.91-.7,1.07-3.83,1.39-7.75,2.12-11.61-4.44,2.48-4,7.63-6,11.43C842.21,285.57,839.57,286.86,839.28,289.65Z" transform="translate(-589.65 19.3)"/><path class="cls-4" d="M868.47,248c0-1.09-1-2.48.94-2.93l2.46,1.79v0c-.33,3,.32,5.9,1.55,9.43l1.25-4.5,1.93.52-3.73,13.49c-2.24-.63-2.26,1.93-4.06,3.05-.28-4.26-1.33-8,.23-11.8A10.33,10.33,0,0,0,868.47,248Z" transform="translate(-589.65 19.3)"/><path class="cls-2" d="M876.59,252.29l-1.93-.52h0c.06-.73.11-1.46.16-2.18l-.92.93c-.93-1.09.14-3.27-2-3.67v0c.63-2,.73-3.87-1.84-4.65v0c-.06-1-.12-2-.19-3.07,3.42-2.67,7-1.33,10.49-.32Z" transform="translate(-589.65 19.3)"/><path class="cls-3" d="M606-7.33a7.59,7.59,0,0,1,4.93-2c6.86-.76,12.18-4.68,17.71-8.25,2-1.29,3.52-2.51,6.59-1,3.95,2,8.86,1.58,12.25,5.7,1.26,1.53,4.68-.43,6.89-1.28,3.51-1.35,5.67-.45,8.23,2.27C666-8.26,671.46-7.44,675.27-4c1.38,1.22,3.81,1.3,4,3.8-2.78,3.67-6,7.21-3.66,12.37-2.38-.42-2.48,1.45-3.05,3s-.19,3.9-2.95,3.69c1.42-5.29,2.85-10.58,4.24-15.87.31-1.15.6-2.44-1-2.79-.79-.16-1.91.14-1.71,1.19,1,5.38-2,9.92-3,14.87a54.65,54.65,0,0,1-13.75,26.36c-2.32,2.52-5.82,4.62-6.25,8.67l0,0a9.74,9.74,0,0,0-1.95.06c-1.29.27-2.26,2.71-3.78.9-1.11-1.32.58-2.38,1.19-3.46,3.37-6,7.15-11.83,10.14-18A133.71,133.71,0,0,0,663.76,2.12c.16-.71.34-1.69,2.06-1.37-3,15.87-9.7,30.27-16.8,44.58a3.06,3.06,0,0,0,1.75-1.17c9.62-13.79,12.67-30,17.05-45.79.43-1.53-.07-3.43-1.66-3.65-2.14-.3-3,1.62-3.54,3.49-1.73-1.14-2.59-3.58-5.15-3.52-4.56-2.24-6.94-.69-7.39,4.24-2,2.59-8.46,1.49-6.25,7.56l0,0c-.92.19-1.26.91-1.56,1.67-.79.8.71,2.2-.74,2.83-2.67-.41-1.91,1.47-1.85,2.82.15,3.51-1,6.63-2.11,9.94-2.33,6.92-7.08,12-11.63,17.23l-3.09.19c.24-1.36-.15-1.8-1.55-1.26-2.69,1-3.85-.86-4.1-2.87-.7-5.74.33-11.57,4.08-15.77A14.31,14.31,0,0,0,625,12c-2.17-.31-3,2.22-4.88,1.44.8-3.45,3.78-4.23,6.52-5.29.74-.28,2.32.48,1.81-1.25-.15-.53-1.33-.75-2-1.12.07-.3.14-.6.22-.9.65-2,1.34-4.12-1.84-4.63v0c.48-1.85-1.78-3.39-.6-5.31.81.33.56,2.36,2,1.49s1.59-2.8,1.73-4.45a1.19,1.19,0,0,0-1.16-1.33c-1.63-.12-1.66,1.3-2,2.33-.22.62-.36,1.28-.54,1.92l-1.89-.51c-.78-.54-.62-2.6-2.4-1.48-2.17,1.36-5.1,1.47-6.57,4l-2-.34c1.17-5.5-3.93-1.55-5.16-3.43Zm28.78-1.55a20.65,20.65,0,0,0-2,2.86c-1.7,3.63-1.64,3.71,1.81,5.79.75.45.21,1.11.21,1.68,0,1.69.39,2.93,2.57,2.66,1.68-.21,3.21-.16,3.73-2.38.72-3.06,1.76-6.05,1.35-9.27.4-2.52.49-5.52-1.81-6.64-2.83-1.38-3.16,2.48-4.89,3.69C635.3-10.16,635.09-9.43,634.76-8.88Zm-.41,30.94A4.32,4.32,0,0,0,636,19.13c.58-2.35,1.48-5.65-1.22-6.29-2.94-.69-6.84-.31-7.74,4.15-.19,1-.28,2-.42,2.93-2.31,2.81-2.8,6.31-3.66,9.66-.6,2.32,1.43,3.11,2.6,4.4,1,1.07,2.35,1.12,3,0C630.85,30.2,635.44,27.48,634.35,22.06Z" transform="translate(-589.65 19.3)"/><path class="cls-3" d="M757.3,173.7c-1.31-2,.73-4.26-.36-6.31a5.13,5.13,0,0,0-2.74-4.93h0c1.1-2.89,1.41-5.52-2.24-6.84v0c.38-2.64-1.86-2.38-3.32-3-2.81-.53.08-4.39-2.84-4.86-4.65-.66-3.73-5.55-6-8,.4-2.66-1.84-2.41-3.31-3h0c-1.91-4.67-4.86-8.9-5.67-14a1.83,1.83,0,0,0-2.44-1.68c.08-.32.15-.64.22-1,.49-2.71-1.82-2.39-3.26-3h0c-.57-6.46-5-5.27-9.13-4.58a42.15,42.15,0,0,1-4.23-1.26c-5.58-2.25-7.8-1.52-9.53,3.23a14.5,14.5,0,0,1-.62,1.33l-1.23.69c-1.72-.28-1.55-2.57-3.16-3,.19-1.35.76-2.84-1.27-3.35.62-2.78,3.24-4,4.78-6,2.7.24,3.3-2.14,4-3.75,1-2.59,1.77-5.32,3.31-7.71h0c2.79-1.09,2.83-3.89,3.78-6.12,3.83,3.25,6.24,7.56,9.1,11.61,11.83,16.73,20.42,35.47,32.7,51.94,5.61,7.53,7.94,16.95,11.28,25.71,7.35,19.25,14.71,38.5,21.81,57.85,1.45,4,3.92,7.68,3.78,12.16-1.05.35-1.66.83-1,2.07,1.58,2.83,4.42,3.46,7.19,4.22-1.26,4-5.39,2-6.12,1.33-4.5-4.17-6.76-9.37-8.21-15.68A64.45,64.45,0,0,0,777,222.55a6.56,6.56,0,0,1-.89-4.25,11.74,11.74,0,0,0-4.1-11.51c-2.81-3.6-5.13-7.44-6-12a1.81,1.81,0,0,0-1.37-2.47h0c1.47-4.44,2.36-8.72-3.12-11.22h0c3.18-3.13-1-4.89-1.48-7.33C759.62,171.71,758.24,173.68,757.3,173.7Zm-49.45-68.64c2.13,4.47,5.94,6.26,9.95,4.33l-10-4.33.12-1,10.4,2.88c-1.88-3.64-3.83-5.85-4.06-8.23-.29-3.09-1.87-4.32-4.17-3.85s-3,2.78-1.92,5.13h0l-.81,3c-.75-.14-1.81-.53-1.76.69S707,104.74,707.85,105.06Zm13.84,2.51-.1-1a7.09,7.09,0,0,0-1.11.73c-.35.35-.44.89.19,1C721,108.25,721.37,107.78,721.69,107.57Z" transform="translate(-589.65 19.3)"/><path class="cls-3" d="M707.57,275.41A48.31,48.31,0,0,1,710,280v-2A7.3,7.3,0,0,0,707.57,275.41Z" transform="translate(-589.65 19.3)"/><path class="cls-3" d="M681,.46c10-9.17,21.25-14.21,35.13-10.76a8.06,8.06,0,0,1,5.7,4.23c3.61,6.71,9,11.85,14.79,16.78a190.25,190.25,0,0,1,17,16.69c3.86,4.24,2.26,10-3.13,13.93.06-.43.13-.86.2-1.3-.24-2.76,4.32-4.7,1.91-7.47-2.81-3.22-5.43-7-10-8.14-3.09-3-6.54-5.81-9.18-9.2-2.45-3.15-9.47-2.61-7.64-9.27.06-.24-1-.72-1.48-1.18-1.8-1.89-3.75-3.72-5.62-5.45C715.59-3.5,712.86-8.1,707.32-6l-2.89-.92c-2.42,1.22-6.35-3.22-7.68,2.06-.44.47-1,1.39-1.3,1.32-2.61-.59-5.32,2.06-5.05,2.63,1.49,3.05.66,7.1,3.83,9.3.35.25,1.44-.55,2.19-.86,2.21,1.89,5.69,3.67.27,6a1.87,1.87,0,0,0-.66,3.2c-.1,1.75-2.39.84-2.76,2.27-2-.44-3.28-1.25-1.81-3.49-.16-1-.31-2-.46-3,.27-1.53,1.11-3.3-1.54-3.58h-.06c1.91-3.18,0-5.39-1.73-7.91-3,4.82-3,4.82-3.39,12.23-.08,1.54-1.1,1.83-2.29,2.11-1.79.42-2.73-.29-3.42-2C676.56,8.56,677.83,4.36,681,.46Z" transform="translate(-589.65 19.3)"/><path class="cls-3" d="M686.32,209.07c.31,2.85-3.37,4.61-2.11,7.72a5.48,5.48,0,0,1,.23,1.47c-.46,3.23-1.93,6.85,3.19,7.81a5.3,5.3,0,0,1,0,1l-.34.36.35-.34c2.32.51.53,2.41,1.21,3.69,3.73,7,9.32,12.72,12.59,20.05,1,2.31,4.93,4,5.13,6.81.28,3.89,2.5,4.59,5.35,5.23h0c-.09.3-.18.61-.26.92a2,2,0,0,0,.45,2.22c-.41,2.13-1.06,4.32,1.58,5.59.3.11.6.21.9.29a2.09,2.09,0,0,0,.49,2.18c.23,2,1.64,2.61,3.29,3-1.36,2.15.35,4.14.31,6.22-2.95-.46-4.54-3.2-7.14-4.26.27-5.44-2.89-9.82-5.25-14.13-7-12.74-14.14-25.46-23.75-36.5A35.41,35.41,0,0,1,675,213.43c-2.61-10.63-9.66-18.38-15.56-26.94-3.47-5-7.75-9.53-10.14-15.29l2.87.38c2.7,1.11,3.2,4.41,5.69,5.73,1.27,1.28,2.12,3.1,4.25,3.27-.14,1.37-1.43,3.07.35,4,5.64,3,7.19,9,10,13.87,2.54,4.5,5.34,8.15,9.84,10.54,1.18,1.52,2.1-.5,3.19-.24Z" transform="translate(-589.65 19.3)"/><path class="cls-3" d="M613.66,103.32c-1.56-6.84-4.47-13.44-3.66-20.72.33-2.92-2.42-4.42-3.51-6.73-2-4.15-.52-8.53-1.53-12.71-1.71-7-6.63-12.09-10.72-17.55-6.45-8.6-6.15-22.79,1.18-29.33.65-.58,1.2-1.14,2.14-.88,1.73,1.49,7.67-1.77,5.13,4.55-5.52-.37-8.8,2.15-10.41,8-1.85,6.75-.86,9.79,3.94,12.27.87.45,1.66,1.06,2.49,1.59-.41,3.69,1.68,6.17,4.18,8.4a11.2,11.2,0,0,1,4,6.65A7.41,7.41,0,0,0,611.59,63L611,64.82c-2.45,6.55-1.86,9.49,2.65,13.2.62,4.41,0,9.07,2.56,13.11a1.88,1.88,0,0,0-2.42,1.71c-.24,1.2.41,1.79,1.43,2.15l0,0c-1.16,2.17-.2,4.62-.92,6.85Z" transform="translate(-589.65 19.3)"/><path class="cls-3" d="M721.93,66.66c-4.33,3.67-10,3.7-15,5.66-1.83.72-3.37,1.15-3.36,3.42-.48,2.44,1.4,2.7,3,3,2.4.48,3.42,2,3.15,4.23-.39,3.25-1,6.47-1.51,9.71h0c-1.54-1.3-2.7-2.71-2.71-5A5,5,0,0,0,702.65,83c-2.2-5-7.86-4.69-11.53-7.43.07-.32.14-.63.22-.94a10.77,10.77,0,0,0-4.12-7.42,1.85,1.85,0,0,0-1.39-2.46c-.37-1.16-1.75-2-1.09-3.49l4.45,2.35,3,3a14.76,14.76,0,0,0,5.53,9.33c.1-3.17-2.28-5.45-2.34-8.46L700,66.5c.85.78.84,4.32,3,.93,4.92,3.12,9.27.89,13.61-1.45h0l3.93.06Z" transform="translate(-589.65 19.3)"/><path class="cls-5" d="M681,.46c-3.12,3.9-4.39,8.1-2.38,13,.69,1.66,1.63,2.37,3.42,2,1.19-.28,2.21-.57,2.29-2.11.34-7.41.36-7.41,3.39-12.23,1.76,2.52,3.64,4.73,1.73,7.91-1.09-.78-1.34-2.88-3.87-2.4l5.93,9c-1.47,2.24-.19,3,1.81,3.49l-3.4,1.13c-3.37-.52-5.15,3.3-8.53,3.12-.92-.05-1.53,1.78-1,2.95.68,1.4,1.89.95,3,.43l5.39-2.53,7.8,1.84.76.52c-1,1.18-1.87,1.21-3.41.63-3.84-1.44-7.37-.76-9.93,2.83-2.42-1.1-7.24-.28-5.71-4.88,1.72-5.19-.78-8.88-2.69-13-2.3-5.16.88-8.7,3.66-12.37Z" transform="translate(-589.65 19.3)"/><path class="cls-5" d="M602.68,20c2.55-6.32-3.39-3.06-5.12-4.55.31-.92.62-1.84.94-2.76l3,.77c5.3.44,7.58-1.41,8.12-6.25.4-3.57.39-7.23,1.76-10.65l2,.34c-.53,2-1.05,4-1.58,6S610.36,8,612.81,8.49c1.68.33,5,.12,6.34-2.57h0c1.67.22,3.28,1.54,5,.32a2.15,2.15,0,0,0,2.26-.48c.71.37,1.89.59,2,1.12.51,1.73-1.07,1-1.81,1.25-2.74,1.06-5.72,1.84-6.52,5.29h0l-1.26.71c-1.47-1.38.63-3.16-.46-4.59C608.09,11.45,600.17,22.65,602,32.72c.07.36.74.62,1.12.93-.7,2.11,3.55,4,.33,6.22-3.16-3.16-4.36-6.82-3.07-11.23C601.24,25.77,601.93,22.85,602.68,20Z" transform="translate(-589.65 19.3)"/><path class="cls-3" d="M640.72,160.35c-3.32-3.9-7.81-5.67-12.59-6.92,2.85-1.18,5.33,1.58,8.19.49-3.42-.37-6.3-3.54-10.15-1.65-3.83-2.56-7.67-5.12-7.32-10.57,1.37-.39,1.51-1.56,1.71-2.69l1.1.3a2.69,2.69,0,0,1,1.2,2.53c-1.33,5.32,2.28,5.42,5.81,5.67,2.53,2.79,6.28,2.35,9.4,3.56.78.29,1.51.64,1.72,1.55-.94.93-1.56,1.79.4,2.18C639.33,156.75,641.25,158.43,640.72,160.35Z" transform="translate(-589.65 19.3)"/><path class="cls-4" d="M640.72,160.35c.53-1.92-1.39-3.6-.53-5.55a2.21,2.21,0,0,1,2.19-.42c1.19,1.85,1.68.74,2.15-.49l3.45-1.1a2.11,2.11,0,0,0,1.67,1.54c-1.93,3.18-4.11,5.92.07,9.62,1.22,1.07,5.08,4.07,2.4,7.63l-2.87-.38-7.1-9a1.53,1.53,0,0,0-1.2-1.69Z" transform="translate(-589.65 19.3)"/><path class="cls-5" d="M620.56,139c-.2,1.13-.34,2.3-1.71,2.69-3.22-7.42-3.18-15.4-3.77-23.22-.38-5.06-.27-10.16-1.42-15.16.23-.48.46-1,.7-1.44.82.83,1.64,1.6,2.27-.18.93,1.37,0,2.66-.15,4a2,2,0,0,0,.36,2.24v0a88.61,88.61,0,0,1,.95,10.44c.1,3.72-1.91,8.35,2.35,11.35-.07.24-.12.48-.17.72C618.71,133.38,618.56,136.27,620.56,139Z" transform="translate(-589.65 19.3)"/><path class="cls-5" d="M750.67,40c-.07.44-.14.87-.2,1.3C741.82,50.09,734.19,60,723,65.94l-.18-.32c.12-2.8,2.32-4.24,4-6.05l2-.45c4.55-3.12,7.88-7.47,11.52-11.51l.13-.32.09-.35c.78-.26.94-.69.34-1.31a5.84,5.84,0,0,0,.18-.83h0a2.18,2.18,0,0,0,2.2-.29,4,4,0,0,0,3-3.46h0a3.78,3.78,0,0,0,1,.24C748.42,41,749.21,39.58,750.67,40Z" transform="translate(-589.65 19.3)"/><path class="cls-3" d="M601.47,13.41l-3-.77c-4.27-7.45-.52-17.45,7.48-20l.21.41c-.12,2.46-2.55,3.3-3.58,5.12-.11.31-.22.63-.31,1-3.41,2.17-5.09,4.82-2.36,8.66l.92.3C601.06,9.88,601.26,11.64,601.47,13.41Z" transform="translate(-589.65 19.3)"/><path class="cls-5" d="M708.16,92.69c.51-3.24,1.12-6.46,1.51-9.71.27-2.27-.75-3.75-3.15-4.23-1.58-.31-3.46-.57-3-3,8.38,2.82,8.38,2.82,8.4,10.83C711,88.8,711,91.6,708.16,92.69Z" transform="translate(-589.65 19.3)"/><path class="cls-5" d="M796.83,252.13c-2.77-.76-5.61-1.39-7.19-4.22-.69-1.24-.08-1.72,1-2.07a.65.65,0,0,1,.63.34c0,.62,0,1.07.8.61l9.7,2.55c-.39,1.4-.8,2.76-2.74,2.39Z" transform="translate(-589.65 19.3)"/><path class="cls-5" d="M715.23,286.24c.59,1.72,1.32,3.77,3.54,4.38-1-2.44-.25-4.91-.1-7.36-2.95-.47-4.54-3.21-7.14-4.27L710,278v2c.31.68.62,1.36.9,2.05A6,6,0,0,1,715.23,286.24Z" transform="translate(-589.65 19.3)"/><path class="cls-5" d="M875.5,234.19c-4.85-1.35-10.11-1.54-14.26-4.93C865.85,231.33,871.41,230.64,875.5,234.19Z" transform="translate(-589.65 19.3)"/><path class="cls-5" d="M626.17,152.27c3.85-1.89,6.73,1.28,10.15,1.65-2.86,1.09-5.34-1.67-8.19-.49A2.28,2.28,0,0,1,626.17,152.27Z" transform="translate(-589.65 19.3)"/><path class="cls-5" d="M721.93,66.66,720.51,66a2.36,2.36,0,0,1,2.35-.42l.18.32Z" transform="translate(-589.65 19.3)"/><path class="cls-3" d="M792,246.79c-.76.46-.85,0-.8-.61Z" transform="translate(-589.65 19.3)"/><path class="cls-3" d="M641,160.46a1.53,1.53,0,0,1,1.2,1.69Z" transform="translate(-589.65 19.3)"/><path class="cls-4" d="M697.37,113.55c1.61.4,1.44,2.69,3.16,3h0c-.7,2.69.71,5.08,1.08,7.61l-.5,1.8c-1.25,1.73-4.25,2.93-1.76,5.8a5.44,5.44,0,0,1-.13,4.37c-3.41,5.88-4.57,12.37-5.29,19a1.66,1.66,0,0,0-1.21,1.73c0,.13.18.24.27.37l1.07-1.93c2.1-1.08,2.64-3.12,3.43-5.15,2.93-7.5,2.28-15.89,6.11-23.25.91-1.75,2.21-5.25-.66-7.48a3.3,3.3,0,0,0-1.18-3.56h0a14.5,14.5,0,0,0,.62-1.33c1.73-4.75,4-5.48,9.53-3.23a42.15,42.15,0,0,0,4.23,1.26c-.44,2.45-1.4,4.08-4.34,3-1.8-.66-2.93.22-3.22,2-1.32,8-6.32,15.34-4.9,24a2.59,2.59,0,0,1-1,2.11c-2.7,1.63-2.45,4.56-3.25,7-1,3-1.76,6-2.53,9-.44,1.73-1.09,3.07-3.12,3.32s-3.28-.74-4.52-2.34c-2.29-3-1.57-5.89-.54-8.94.27-1,.55-1.92.82-2.88a2.1,2.1,0,0,0,2.38-1.27c1.18-2.2.26-4.23-.48-6.15-1-2.64-3.92-.59-5.57-1.9-2.79-1.95-5.07-3.45-7.22,1.24-.69,1.5-3.07,4.68-6.47,3.29l0-.05c-.05-1-.1-2.11-.14-3.16.36-2.62,3.05-3.8,3.79-6.18h0c2.42.41,3.1-1.45,4-3.06h0a3.15,3.15,0,0,0,3.46-1.16c2,.76,4.82.49,4.29,4.17-.2,1.43,1.27,1.69,2.54,1,3.56-1.83,4.38-5,2.31-8.8a4.19,4.19,0,0,1-2.67-4.83C691.6,118.5,695.94,117.37,697.37,113.55Z" transform="translate(-589.65 19.3)"/><path class="cls-2" d="M771.4,330.58c-1.4.2-2.91.1-3.68-.94-2-2.69-5.17-2.66-7.8-3.88-4.87-2.25-10.25.13-15.06-2l-1.08,3.79,1,.35c1.77-.72,3,.49,4.5,1.1s2.89,1.29,4.6.14c2.48-1.64,7.66.64,9.19,3.83h0c1.43.33,2.84.7,2.41,2.7a1.55,1.55,0,0,1,.23,2.06c-.07.1-.29.1-.43.15.06-.74.11-1.47.17-2.2-3.51,1.45-.06,5.78-3.08,7.43-.36,1.37-.67,2.8-2.64,2.34-5.08-1.3-8.34.72-9.86,5.53a95.9,95.9,0,0,0,12,3.09l1.49.11,1.66-6c1.84.73-.52,2.5,1.31,3.26.82-5.44,4.11-10.32,2.89-16.09,1.61-.67,2.93.29,4.34.54a2.22,2.22,0,0,1,2.29-.43c2.63-1.15,2.95.27,2.44,2.31-.85,3.37-1.82,6.71-2.74,10.06,5.18-1.05,4.47-5.21,4.74-8.91C780.9,330.71,779.6,329.45,771.4,330.58Z" transform="translate(-589.65 19.3)"/><path class="cls-4" d="M732.05,193.72c4.68.1,6,4.15,6.86,7.24s-.92,6.4-4.61,7.78c-.67.26-1.12,1.11-1.67,1.68l-2.87-.79c.23-4-1.89-7-4.62-9.57-3.36-2.81.33-5.48.17-8.23.2-1.37,1.43-2.86-.19-4.06-2.92-2.18-3.25-5.3-3.88-8.61s-1.6-6.88-5.84-7.69v0c-.12-3.1,2.25-6.59-.31-9.2-2-2-3-3.87-2.55-6.43.3-1.81-.41-2.44-1.83-3.44a9.54,9.54,0,0,1-3.76-7.58c.06-2.67,3.56-.4,5.4-1.36,1.51-.79,2.72,0,3.55,1.61.92,1.8,1.58,3.33-.65,4.58-.8.13-.88.46-.27,1l0,0a7,7,0,0,0,.32,5.24c.4.95,1.19,1.75,2.28,1.3,1.28-.53.38-1.69.43-2.58l2,.53a3,3,0,0,0,2.35,2.74c-.49,6.27,4.43,10.67,5.72,16.43.65,2.88.89,5.31,0,8l-.92-.3c-.89-5.78-2.14-11.42-5.84-16.19a1.83,1.83,0,0,0-1.49-2.4c.5-1.72.8-3.35-1.57-4.3-.53,2.19.61,3.2,1.58,4.29a1.87,1.87,0,0,0,1.31,2.51c1.13,5.69,2.06,11.45,6,16.12,0,.42-.1,1.16,0,1.21.83.29.7-.54.94-1,6.86,5.27,6.86,5.27,4.06,11.5-2.11-1.72-1.21-5.22-4.3-6.49,1.32,3.59,1.09,7.7,4.23,10.6a7.79,7.79,0,0,0,3.48,7.63c-.44-2.89-1-5.73-3.46-7.64A6.47,6.47,0,0,0,732.05,193.72Zm-18.76-46c-.11,0-.26-.06-.32,0a.83.83,0,0,0-.18.35l.54.05Z" transform="translate(-589.65 19.3)"/><path class="cls-2" d="M715.24,149.63c2.23-1.25,1.57-2.78.65-4.58-.83-1.64-2-2.4-3.55-1.61-1.84,1-5.34-1.31-5.4,1.36a9.54,9.54,0,0,0,3.76,7.58c1.42,1,2.13,1.63,1.83,3.44-.43,2.56.6,4.45,2.55,6.43,2.56,2.61.19,6.1.31,9.2-2.4-.67-4.81-1.32-7.21-2-.77-.23-1.75-.47-1.58-1.55a1.6,1.6,0,0,1,1.87-1.25c4.31.34,3.95-1.73,2.45-4.53-.53-1-1.26-2.16-1.18-3.19.25-3.23-1.06-5.25-4.19-5.69-2.16-.3-1.67-2.58-3.25-3.63-1.55,2.37-2.9,5.25-2.14,7.43,1.79,5.15-2.22,6.47-4.85,8.47-2.82,2.15-5.93.07-8.37-1.15-3.77-1.9-2.37-10.46,1.81-12.7-1,3.05-1.75,6,.54,8.94,1.24,1.6,2.42,2.59,4.52,2.34s2.68-1.59,3.12-3.32c.77-3,1.54-6.06,2.53-9,.8-2.43.55-5.36,3.25-7a2.59,2.59,0,0,0,1-2.11c-1.42-8.62,3.58-15.92,4.9-24,.29-1.77,1.42-2.65,3.22-2,2.94,1.08,3.9-.55,4.34-3,4.15-.69,8.56-1.88,9.13,4.58-3.65-1.82-6.73-2-9.29,2-2,3.2-4,2.71-4.93-1.94-2,6.16-3.49,11.54-5,16.9-.55,1.94.59,2.51,2.11,3.22,3.78,1.74,7.92,2,11.81,3.25,1,.31,3,1,1.67,2.07-4.75,3.75-.53,8.39-1.7,12.4l-2-.53c-.41-1.78-1.12-3.33-3-4l0,0Z" transform="translate(-589.65 19.3)"/><path class="cls-2" d="M652.12,171.58c2.68-3.56-1.18-6.56-2.4-7.63-4.18-3.7-2-6.44-.07-9.62l2.87.75c2.73,1,4.37.08,4.91-2.78h0c4.39-.49,7.69-4.56,12.46-3.79,1.28,1.46,0,3-.37,4.11-1.22,4.2-1.39,7.58,3.58,9.32,1.11.38,2.23,2.07,1.19,2.65-4.56,2.56-5.43,9.79-12.1,9.5-2.37-.1-3.59,1.25-4.39,3.23C655.32,176,654.82,172.69,652.12,171.58Z" transform="translate(-589.65 19.3)"/><path class="cls-2" d="M687.61,227a5.3,5.3,0,0,0,0-1c-5.12-1-3.65-4.58-3.19-7.81a5.48,5.48,0,0,0-.23-1.47,4.31,4.31,0,0,1,5.14-1.82c2.83.69,4.81,3.66,8.32,2.83.63-.15,2.94,1.89,2.28,4.24s-.86,4.86-1.59,7.19c-1,3-.75,5,1.78,7.76,3,3.31,4.15,8.32,6,12.63.51,1.18.13,3,1.54,3.48,5.12,1.72,4.33,5.83,4.21,9.72-2.85-.64-5.07-1.34-5.35-5.23-.2-2.84-4.1-4.5-5.13-6.81-3.27-7.33-8.86-13.08-12.59-20.05-.68-1.28,1.11-3.18-1.21-3.69Z" transform="translate(-589.65 19.3)"/><path class="cls-2" d="M686.32,209.07l-.93-.31c.09-.81.26-1.8-.87-1.86-1.34-.08-1.91,1-2.32,2.1-4.5-2.39-7.3-6-9.84-10.54-2.76-4.87-4.31-10.9-10-13.87-1.78-.94-.49-2.64-.35-4,3.27.34,7.8-1.05,6.94,5-.47.24-1.39.2-.7,1.15l.7-1.15a15.7,15.7,0,0,1,7.21,4c-.39,2.94,2,4.09,3.87,4.95,2.11,1,2.52-.51,1.6-2.32.67-1.74-1.32-2.35-2.13-3.87,2.24.29,3.92.48,5.6.72,6.62.94,7,1.54,5.55,8-.64,2.78-.64,2.78,2.25,6.43C689.55,204.08,688.14,206.79,686.32,209.07Z" transform="translate(-589.65 19.3)"/><path class="cls-4" d="M840.24,322.24c.35-4.8-3.36-8.49-5-6.09-2,2.93-6.05,3.21-7.12,6.69.43,3.05,0,7.81-2.05,7.91-4,.2-.61-3.22-.79-5a7.41,7.41,0,0,1,.59-2.39L822,322.27c-.72,2.56-1.43,5.13-2.15,7.69a5.26,5.26,0,0,1,2.81,4.91l2.09.58a68.35,68.35,0,0,1,8-6.76,37.5,37.5,0,0,0,2.39-8.79c.07-.78.58-1.68,1.65-1.32a1.67,1.67,0,0,1,1,2c-.46,1.93-1,3.83-1.55,5.73.28-.17.54-.35.81-.51a30.84,30.84,0,0,1,3-1.58q1.47-1.58,2.89-3.2a7.25,7.25,0,0,1,2.54-4.8,16.43,16.43,0,0,0,.13-8.21C842,312,843,317.7,840.24,322.24Z" transform="translate(-589.65 19.3)"/><path class="cls-2" d="M824,299.93l3.88,1.1c-1.45,5.27-10.91,11-16.15,9.89-2.15-.47-2.57-1.92-2.09-3.75,1.19-4.49,2.49-8.95,3.68-13.44.56-2.13,1.94-2.67,3.74-1.84,2.47,1.14,4.79.26,7.17-.16l0,0-.77,2.93,0,0c-3,1-7,.54-7.6,5.06a2.14,2.14,0,0,0-1.56,1.7l-1.36,0,.14.43,1.22-.44a2,2,0,0,0,2.55-1.41c.26.07.53.15.78.24l1.95.54c1.58.25,3.41,1.72,4.43-.87Z" transform="translate(-589.65 19.3)"/><path class="cls-4" d="M769,281.59a10.36,10.36,0,0,1-3.66-8.86c.36-3-.7-3.89-3.15-4.32l-1.9-.55c1.38-3.17.74-6.07-1-8.94-.74-1.22-2.06-2.5-1.51-4.06,1.11-3.14-.07-4.45-3.08-5.32-1.21-.35-4.63-1.26-1.22-3.85,1.85-1.41-2.42-3.35.16-4.94-1.62-2.38.76-3.05,1.84-4.28l1,.27h0a1.83,1.83,0,0,0,1.4,2.46h0c-.73,2.09-.58,3.82,1.85,4.66l0,0c.32,2.7-1.12,5.85,2,7.84l0,0c2.31,7.82,3.78,15.93,8.17,23v0Q769.44,278.12,769,281.59Z" transform="translate(-589.65 19.3)"/><path class="cls-2" d="M718.77,290.62c-1-2.44-.25-4.91-.1-7.36,0-2.09-1.67-4.08-.31-6.23,5.86,1.7,4.45,7,5.15,11s4.27,7.95,8.1,7.93c2.21,0,4.63,4.82,3.07,6.74-1.7,2.1-2.4,4.56-3.53,6.86-1.74,1.38-2.48-1.13-3.9-1v-.06l-.63-1.23c-1.24-2.72,1.59-2.5,2.63-3.52s2.91-1.7.18-2.85l-.12-1.39-2.16,1.75a5.17,5.17,0,0,1-.68-.16,7.23,7.23,0,0,0-3.79-2.17c.4-1.4.81-2.81-1.17-3.38v0l.12-1.31-.79.15c-1-1.1-.67-2.91-2.08-3.77Z" transform="translate(-589.65 19.3)"/><path class="cls-4" d="M727.25,308.58c1.42-.12,2.16,2.39,3.9,1l.73,1.22c-.39.53-1.2,1.15-1.1,1.57.91,4,2,8.23,5.42,10.68,1.52,1.11,4.46,5.83,6.75.18l1.91.51-1.08,3.79c-1.64-.54-2.85.78-4.32,1-4.14-3.64-7.93-2-11.64.79l-1-.19-1.88-.53c-1.44-.38-3-.82-3.13-2.58-.17-2.39,1.93-1.3,3-1.86,1.92-1,4.64-1.54,4.66-4.6C727.72,316.1,727.71,312.3,727.25,308.58Z" transform="translate(-589.65 19.3)"/><path class="cls-2" d="M715.4,171.47c4.24.81,5.22,4.48,5.84,7.69s1,6.43,3.88,8.61c1.62,1.2.39,2.69.19,4.06l-2.38-.67c-8.35-2.32-8.51-2.35-6.69-11.13C716.87,177,713.77,174.48,715.4,171.47Z" transform="translate(-589.65 19.3)"/><path class="cls-2" d="M743,323.24c-2.29,5.65-5.23.93-6.75-.18-3.38-2.45-4.51-6.66-5.42-10.68-.1-.42.71-1,1.1-1.57a7.79,7.79,0,0,1,7.34,3.86c.43.69,1.14,1.95.92,2.18C735.79,321.37,740.93,321.61,743,323.24Z" transform="translate(-589.65 19.3)"/><path class="cls-4" d="M775.86,335.42q-2.61,9.51-5.24,19c1,0,2,0,3,0a4.76,4.76,0,0,1,.57-1.81c.44-1.6.89-3.2,1.33-4.81.92-3.35,1.89-6.69,2.74-10.06C778.81,335.69,778.49,334.27,775.86,335.42Z" transform="translate(-589.65 19.3)"/><path class="cls-4" d="M669.9,148.5c-4.77-.77-8.07,3.3-12.46,3.79-.11-2.3,3.76-1.7,3.17-4.34l2.86-2.29c1.09,0,3.33,1.77,2.33-1.5l.64-1.8h0l1.93.44c.95,1.48,2.68.32,3.84,1.12l0,.05Z" transform="translate(-589.65 19.3)"/><path class="cls-2" d="M685.9,139.44c1.65,1.31,4.55-.74,5.57,1.9.74,1.92,1.66,3.95.48,6.15a2.1,2.1,0,0,1-2.38,1.27Q687.73,144.1,685.9,139.44Z" transform="translate(-589.65 19.3)"/><path class="cls-2" d="M725.14,200.06c2.73,2.61,4.85,5.52,4.62,9.57C724,208.48,725.24,204,725.14,200.06Z" transform="translate(-589.65 19.3)"/><path class="cls-3" d="M681.68,192.24c.92,1.81.51,3.3-1.6,2.32-1.83-.86-4.26-2-3.87-4.95Z" transform="translate(-589.65 19.3)"/><path class="cls-2" d="M819.87,330a5.26,5.26,0,0,1,2.81,4.91C819.56,334.48,818.62,332.85,819.87,330Z" transform="translate(-589.65 19.3)"/><path class="cls-2" d="M713.68,271.55c-2.64-1.27-2-3.46-1.58-5.59C715,267.17,714.3,269.36,713.68,271.55Z" transform="translate(-589.65 19.3)"/><path class="cls-4" d="M746.25,228.72c.55-1.12.5-3.48,2.38-2.39a2.26,2.26,0,0,1-.74,3.9Z" transform="translate(-589.65 19.3)"/><path class="cls-2" d="M775.36,277.21a1.54,1.54,0,0,1,.24,2.07c-.07.09-.29.09-.43.14l.18-2.21Z" transform="translate(-589.65 19.3)"/><path class="cls-2" d="M715.07,274a2.09,2.09,0,0,1-.49-2.18A2,2,0,0,1,715.07,274Z" transform="translate(-589.65 19.3)"/><path class="cls-2" d="M711.65,263.74c.08-.31.17-.62.26-.92C712.52,263.32,712.41,263.62,711.65,263.74Z" transform="translate(-589.65 19.3)"/><path class="cls-4" d="M777.13,274.58a5.16,5.16,0,0,1,.78-.17s.1.28.16.42Z" transform="translate(-589.65 19.3)"/><path class="cls-1" d="M720,155.06c1.17-4-3.05-8.65,1.7-12.4,1.36-1.07-.68-1.76-1.67-2.07-3.89-1.22-8-1.51-11.81-3.25-1.52-.71-2.66-1.28-2.11-3.22,1.5-5.36,3-10.74,5-16.9,1,4.65,2.91,5.14,4.93,1.94,2.56-4,5.64-3.87,9.29-2h0c-.46,2.67,1.81,2.39,3.26,3-.07.32-.14.64-.22,1-1.21,6.1,2.65,13.58,8.11,15.71h0c-.44,2.7,1.83,2.41,3.31,3,2.32,2.42,1.4,7.31,6,8-.56,1.66-2,2.86-3.37,2-6.13-4-5.59,1.39-6.69,4.52l-.54,1.92c-2.79.09-4.33,1.46-2.85,4.08s-.11,5.48,1.19,8.19c.78,1.62-1.06,3.09-2.8,3.45-2.11.44-1.71-1.56-2.07-2.67-1.37-4.23-1.83-8.94-6.35-11.41A3,3,0,0,1,720,155.06Z" transform="translate(-589.65 19.3)"/><path class="cls-4" d="M735.18,156.16l.54-1.92,3.87,1.1c-1.13,3.06,1.07,5.26,2,7.8v0c-.75,6-.46,11.84,2.49,17.31v0c-.64,4.92.82,9,5.06,11.79v0a2,2,0,0,0,.44,2.23l0,0,.12,4.09c-5.28-.14-4.9-5.39-7.16-8.21-.59-.75-.55-2.16-1.87-2.45-2.33-.52-2.79-2.46-2.69-4.22a67.76,67.76,0,0,0-3.22-25C734.47,157.9,735,157,735.18,156.16Zm1.37,1-.38.59h.39Z" transform="translate(-589.65 19.3)"/><path class="cls-4" d="M827.49,238.73c.68-.44,1.54-1.41,2-1.24,7.52,2.66,12.81-3,19-5.09,2.62-.88,3.12-.68,3,2.12,0,1.93.9,3.89,1.41,5.84-.92,0-2.21-.66-2.64.32-.54,1.23.82,1.45,1.68,1.72,1.07.34,2.16.58,3.24.87h0l-.33,1c-1.88-.47-3.84-1.46-5.3.82a4.94,4.94,0,0,1-.57.75c-4.23-2.88-8.87,3.5-13-.59h0A13.2,13.2,0,0,0,827.49,238.73Z" transform="translate(-589.65 19.3)"/><path class="cls-4" d="M852.39,268.49c2.18-2.14,4-4.37,3.4-7.78a5.79,5.79,0,0,1,.82-3.33c1.15-2.23,3-3.57,5.6-2.77s2.46,2.95,2,4.9c-1.33,5.28-2.85,10.53-4.31,15.78-.41,1.44-.75,3.07-2.85,2.61-1.55-.34-3.47-.35-3.29-2.81.06-.74.31-1.92-1-1.65-.53.12-.82,1.27-1.22,1.95C850.31,272.91,852.16,270.79,852.39,268.49Zm4.43,7.41.56.16,4.55-16.46-.57-.15Z" transform="translate(-589.65 19.3)"/><path class="cls-4" d="M741.51,155.87c2.84,1.23,3.4,1.93,3.89,7.55.83,9.56,2.25,18.89,6.82,27.57a10.56,10.56,0,0,1,1,8.62l-1.9-.62,0,0c.66-2.06.56-3.83-1.85-4.67l0,0a2.15,2.15,0,0,0-.44-2.23v0c-.64-4.38-3-8-5.06-11.79v0c.6-5.42-.64-10.73-1.08-16.08,0-.45-.92-.83-1.41-1.23v0A10.34,10.34,0,0,0,741.51,155.87Z" transform="translate(-589.65 19.3)"/><path class="cls-4" d="M829.46,265.19c-.53,1.68-.59,3.79-2.92,4.07s-2.93-1.51-3.39-3.37a2.4,2.4,0,0,0-1.09-1.49c-5.29-2.33-5.95-4.65-4.19-10.24,1-3.24,3.3-1.5,4.91-2.22-.72,2.92-1.52,5.84.79,8.47,2.28,0,2.44,2.75,4.29,3.3A2.07,2.07,0,0,0,829.46,265.19Z" transform="translate(-589.65 19.3)"/><path class="cls-4" d="M745.91,222.06c-1,1.58-2.36,4-4.14,3.44s-3.5-2.81-4.41-4.72a2.24,2.24,0,0,1,2.58-3.11c1.57.19,1-.24.47-1.14a11.75,11.75,0,0,1-1.73-4c-.26-1.28.2-2.36,2-1.35C743.07,212.59,746.54,219.44,745.91,222.06Z" transform="translate(-589.65 19.3)"/><path class="cls-4" d="M775.78,249.28c2,.49,3.59,1,3.39,3.8-.25,3.65,4.81,4.7,4.69,8.75a21.47,21.47,0,0,1-.26,4.23c-1.36-1.77-3-3.3-4-5.41-.73-1.57-1.41-.39-1.8.56l-.18.07c-1.94-.71-1.49-2.12-1-3.54,2.31-2,.81-3.17-.91-4.3l0,0A7,7,0,0,0,775.78,249.28Z" transform="translate(-589.65 19.3)"/><path class="cls-5" d="M769.84,274.66c-4.39-7.09-5.86-15.2-8.17-23l4.77,1.33c-1.09.71-2,1.15-1.31,3,1.77,4.81,2.56,10,4.78,14.62A6.21,6.21,0,0,1,769.84,274.66Z" transform="translate(-589.65 19.3)"/><path class="cls-4" d="M764.61,222.46c1.83-2.23,3.23-2.86,4.59.59.34.89-.33,3.51,2.64,3,1.16-.2,1.62,2.41,1,3.25-2.33,3-.39,5.91-.19,8.85-2.08-.84-2.82-2.47-2.87-4.61,0-1.61,0-3.32-2-4v0C768.62,226.3,767.47,224,764.61,222.46Z" transform="translate(-589.65 19.3)"/><path class="cls-4" d="M783,272.06c-1.43,2.81-3.44.9-5.18.56s-1.17-1.88-1.47-3.13c-.75-3,.93-5.48,1.31-8.21l.18-.07C780.48,264.38,781.41,268.38,783,272.06Z" transform="translate(-589.65 19.3)"/><path class="cls-5" d="M767.8,229.48c1.94.72,1.93,2.43,2,4,0,2.14.79,3.77,2.87,4.61h0c.1,3.79-.27,7.72,3.27,10.43a4.66,4.66,0,0,0-.13.73,7,7,0,0,1-.07,4.19c-2.58-2-2.32-5.85-5.11-7.68h0a8.21,8.21,0,0,0-.76-7.07A14.91,14.91,0,0,1,767.8,229.48Z" transform="translate(-589.65 19.3)"/><path class="cls-3" d="M823.46,294.7l.77-2.93c2.21-.95,5.07,0,6.83-2.28.09-.33.18-.65.28-1,2.87-1.2,5.28.83,7.94,1.13v0c-3.81,3-9.33,2.24-12.94,5.74l-.08,0Z" transform="translate(-589.65 19.3)"/><path class="cls-4" d="M767.8,229.48a14.91,14.91,0,0,0,2,9.24,8.21,8.21,0,0,1,.76,7.07c-2.65-6.12-7.4-11.68-5.11-19.12.77,1,1.55,1.89,2.32,2.83Z" transform="translate(-589.65 19.3)"/><path class="cls-4" d="M772,206.79a11.74,11.74,0,0,1,4.1,11.51c-2.85-2-3.62-5.44-5.34-8.22C770,208.87,770.47,207.49,772,206.79Z" transform="translate(-589.65 19.3)"/><path class="cls-4" d="M769.91,270.58c-2.22-4.67-3-9.81-4.78-14.62-.68-1.84.22-2.28,1.31-3,1.37,4,1.85,8.38,4.15,12.12C771.8,267,770.09,268.74,769.91,270.58Z" transform="translate(-589.65 19.3)"/><path class="cls-5" d="M852.39,268.49c-.23,2.3-2.08,4.42-.84,6.9-.79,2.91-1.59,5.81-2.39,8.72-1.11.95-2.68,2-1.91-.7,1.07-3.83,1.39-7.75,2.12-11.61C850.09,270.43,849.67,268,852.39,268.49Z" transform="translate(-589.65 19.3)"/><path class="cls-4" d="M775.91,248.55c-3.54-2.71-3.17-6.64-3.27-10.43C778.4,240.6,778.4,240.6,775.91,248.55Z" transform="translate(-589.65 19.3)"/><path class="cls-5" d="M829.46,265.19a2.07,2.07,0,0,1-1.6-1.48q1.29-4.81,2.59-9.61c1.94-.84,2.44-.6,2.46,1.34C833,259.09,830.74,262,829.46,265.19Z" transform="translate(-589.65 19.3)"/><path class="cls-3" d="M830.45,254.1q-1.29,4.8-2.59,9.61c-1.85-.55-2-3.3-4.29-3.3.35-1.25.71-2.5,1.06-3.76,3,1.06,3.43-1,3.93-3.1Z" transform="translate(-589.65 19.3)"/><path class="cls-5" d="M783,272.06c-1.58-3.68-2.51-7.68-5.16-10.85.39-.95,1.07-2.13,1.8-.56,1,2.11,2.61,3.64,4,5.41C783.31,268.05,787.48,270.49,783,272.06Z" transform="translate(-589.65 19.3)"/><path class="cls-5" d="M839.2,267.39c.44,3.76.58,6.43-.46,9-.38,1-1.1,1.87-2.14,1.62-1.29-.32-1-1.55-.65-2.45C836.75,273.18,836.79,270.49,839.2,267.39Z" transform="translate(-589.65 19.3)"/><path class="cls-4" d="M761.49,181.08c5.48,2.5,4.59,6.78,3.12,11.22-.45-.43-1.33-.9-1.29-1.29.2-2.54,1-5.13-2.14-6.71C760.84,184.13,761.37,182.19,761.49,181.08Z" transform="translate(-589.65 19.3)"/><path class="cls-4" d="M757.3,173.7c.94,0,2.32-2,2.71,0,.47,2.44,4.66,4.2,1.48,7.33C758.44,179.55,757.93,176.59,757.3,173.7Z" transform="translate(-589.65 19.3)"/><path class="cls-4" d="M770.6,245.79c2.79,1.83,2.53,5.69,5.11,7.68l0,0-.48,1.9C770.13,253.87,770.87,249.58,770.6,245.79Z" transform="translate(-589.65 19.3)"/><path class="cls-4" d="M828.56,253.55c-.5,2.06-1,4.16-3.93,3.1-1.13-1.39-.19-2.76,0-4.14C827.08,248.7,827.45,252.49,828.56,253.55Z" transform="translate(-589.65 19.3)"/><path class="cls-5" d="M756.47,236.74l-1-.27a16.55,16.55,0,0,0-3.4-4.75c-.37-.36-2.22-1.67-.3-2.62,1.17-.59,2.54-.28,2.76,1.12C754.93,232.5,757.16,234.2,756.47,236.74Z" transform="translate(-589.65 19.3)"/><path class="cls-5" d="M860,248.65a10.3,10.3,0,0,1,.49-1.93c.66-1.37.15-4.24,2.16-3.81,2.44.53.94,3,.72,4.68A2.78,2.78,0,0,1,860,248.65Z" transform="translate(-589.65 19.3)"/><path class="cls-4" d="M752,155.62c3.65,1.32,3.34,3.95,2.24,6.84A5.78,5.78,0,0,1,752,155.62Z" transform="translate(-589.65 19.3)"/><path class="cls-5" d="M741.51,155.87a10.34,10.34,0,0,1,.06,7.27c-.91-2.54-3.11-4.74-2-7.8Z" transform="translate(-589.65 19.3)"/><path class="cls-5" d="M824.68,252.51c-.24,1.38-1.18,2.75,0,4.14-.35,1.26-.71,2.51-1.06,3.76-2.31-2.63-1.51-5.55-.79-8.47Z" transform="translate(-589.65 19.3)"/><path class="cls-5" d="M767.81,229.5c-.77-.94-1.55-1.88-2.32-2.83-.75-1.31-1.8-2.55-.88-4.21C767.47,224,768.62,226.3,767.81,229.5Z" transform="translate(-589.65 19.3)"/><path class="cls-5" d="M761.69,251.67c-3.12-2-1.68-5.14-2-7.84C763.64,245.6,761,249.06,761.69,251.67Z" transform="translate(-589.65 19.3)"/><path class="cls-5" d="M769,281.59q.4-3.46.8-6.95C771.81,277.22,773.44,279.75,769,281.59Z" transform="translate(-589.65 19.3)"/><path class="cls-4" d="M754.2,162.46a5.13,5.13,0,0,1,2.74,4.93C754.68,166.5,750.92,166.43,754.2,162.46Z" transform="translate(-589.65 19.3)"/><path class="cls-5" d="M751.34,199l1.9.62c0,1.22,1.48,2.18.39,3.88C751.64,202.58,751.07,201,751.34,199Z" transform="translate(-589.65 19.3)"/><path class="cls-5" d="M749.51,194.35c2.41.84,2.51,2.61,1.85,4.67l-1.74-.58C749.59,197.07,749.55,195.71,749.51,194.35Z" transform="translate(-589.65 19.3)"/><path class="cls-4" d="M748.62,152.62c1.46.6,3.7.34,3.32,3C750.47,155,748.22,155.3,748.62,152.62Z" transform="translate(-589.65 19.3)"/><path class="cls-5" d="M759.71,243.85c-2.43-.84-2.58-2.57-1.85-4.66A4.8,4.8,0,0,1,759.71,243.85Z" transform="translate(-589.65 19.3)"/><path class="cls-5" d="M775.21,255.34l.48-1.9c1.72,1.13,3.22,2.31.91,4.3l-.64-1.13-.76-1.23Z" transform="translate(-589.65 19.3)"/><path class="cls-4" d="M764.61,192.3a1.81,1.81,0,0,1,1.37,2.47A1.81,1.81,0,0,1,764.61,192.3Z" transform="translate(-589.65 19.3)"/><path class="cls-5" d="M757.86,239.19a1.83,1.83,0,0,1-1.4-2.46A1.78,1.78,0,0,1,757.86,239.19Z" transform="translate(-589.65 19.3)"/><path class="cls-5" d="M854.92,244.25l.33-1a1.83,1.83,0,0,1,1.62,1.51Z" transform="translate(-589.65 19.3)"/><path class="cls-1" d="M831.34,288.52c-.1.32-.19.64-.28,1C830.48,289,830.6,288.66,831.34,288.52Z" transform="translate(-589.65 19.3)"/><path class="cls-4" d="M775.2,255.38l.76,1.23C775.71,256.2,775.46,255.79,775.2,255.38Z" transform="translate(-589.65 19.3)"/><path class="cls-4" d="M836,245.23l-.33.34.33-.34Z" transform="translate(-589.65 19.3)"/><path class="cls-5" d="M845.63,308a16.43,16.43,0,0,1-.13,8.21,5.36,5.36,0,0,1,.29,1.52q1.05-1.22,2.07-2.46a38.74,38.74,0,0,0-.26-6.87C847.29,306,846.68,306.21,845.63,308Z" transform="translate(-589.65 19.3)"/><path class="cls-5" d="M855.71,305.29l2.93-3.85a14.66,14.66,0,0,0-.87-3.51C856.34,300.19,856.08,302.75,855.71,305.29Z" transform="translate(-589.65 19.3)"/><path class="cls-5" d="M828.09,322.84c.43,3.05,0,7.81-2.05,7.91-4,.2-.61-3.22-.79-5a7.41,7.41,0,0,1,.59-2.39A2.26,2.26,0,0,1,828.09,322.84Z" transform="translate(-589.65 19.3)"/><path class="cls-5" d="M855.24,243.27c-1.08-.29-2.17-.53-3.24-.87-.86-.27-2.22-.49-1.68-1.72.43-1,1.72-.33,2.64-.32C854.19,241,855.9,241.18,855.24,243.27Z" transform="translate(-589.65 19.3)"/><path class="cls-5" d="M870,242.21c2.57.78,2.47,2.61,1.84,4.65l-2.46-1.79C869.62,244.12,869.83,243.16,870,242.21Z" transform="translate(-589.65 19.3)"/><path class="cls-5" d="M864.8,238.67c-1.81-.42-2.2-2.22-3.15-3.48,2.24,0,3.55.89,3.17,3.47Z" transform="translate(-589.65 19.3)"/><path class="cls-5" d="M864.82,238.66c1.13.4,2.09,1,2,2.38a.66.66,0,0,1-1,.6c-1.24-.65-1.13-1.82-1-3Z" transform="translate(-589.65 19.3)"/><path class="cls-5" d="M869.83,239.12c.07,1,.13,2,.19,3.07a2.15,2.15,0,0,1-1.65-2.55C868.45,238.75,869.22,239,869.83,239.12Z" transform="translate(-589.65 19.3)"/><path class="cls-5" d="M826.35,295.42c3.61-3.5,9.13-2.7,12.94-5.74,4.5-1.09,9.08-1.94,13.46-3.36,2.27-.73,4.27.13,6.39,0,1.46-.09,1.48,1.07,1.14,2.1s-1.37,1.76-2.12.53c-1.41-2.31-3-1.23-4.73-.68-6.3,2-12.78,3.5-18.92,6.08C832,295.43,829.26,296.55,826.35,295.42Z" transform="translate(-589.65 19.3)"/><path class="cls-5" d="M823.46,294.7l2.81.76q-1.14,2.24-2.29,4.47v0a3.67,3.67,0,0,0-4.43.87l-1.95-.54c1.55-2.28,5-2.54,5.83-5.6Z" transform="translate(-589.65 19.3)"/><path class="cls-5" d="M871.86,246.84c2.17.4,1.1,2.58,2,3.67l.76,1.25h0l-1.25,4.5C872.18,252.74,871.53,249.88,871.86,246.84Z" transform="translate(-589.65 19.3)"/><path class="cls-4" d="M874.65,251.76l-.76-1.25.92-.93C874.76,250.3,874.71,251,874.65,251.76Z" transform="translate(-589.65 19.3)"/><path class="cls-2" d="M650.08-1.07c.45-4.93,2.83-6.48,7.39-4.24,1.27,3.07.48,6-.39,9-2.14,7.43-4.14,14.9-6.2,22.35a3.58,3.58,0,0,1-2.61,1.43C646,22,642.92,16.83,641.56,11c1.45-.63,0-2,.74-2.83.93-.18,1.29-.88,1.56-1.67l0,0c2.69-2,5.39-3.93,8.08-5.91.54-.4,1.09-1.16.47-1.56S650.86-1.06,650.08-1.07Z" transform="translate(-589.65 19.3)"/><path class="cls-4" d="M675.6,12.12c1.91,4.09,4.41,7.78,2.69,13-1.53,4.6,3.29,3.78,5.71,4.88v0c-3.81.11-8,1.14-8.7-4.78-.14-1.23-2-2.13-3.48-2.45a1.48,1.48,0,0,0-1.71,1.42c-.56,6.61-6.17,11.2-7,17.67h0a40.52,40.52,0,0,0-12,13.3h0c-2-.64-4.12-1.38-4.63,1.84-.09.32-.19.63-.29,1-4.11,1.26-8.11.79-11.4-1.84a11,11,0,0,0-4-2.43l1.06-3.85c3.35,2.46,4.22-2.54,6.84-2.28h0l-.9,2.91c-.57.16-.65.46-.24.89-.14,2.08.19,4.52,2.61,4.3,3-.27,6.72-.41,7.87-4.45l0,0c5.34-2.86,8.46-8.06,12.53-12.2,5.37-5.46,7-13,9-20.23,2.76.21,2.37-2.17,2.95-3.69S673.22,11.7,675.6,12.12Z" transform="translate(-589.65 19.3)"/><path class="cls-5" d="M648.05,51.22c-1.15,4-4.83,4.18-7.87,4.45-2.42.22-2.75-2.22-2.61-4.3l.15-.44.09-.45.9-2.91c.88.52,1.81,2.2,2.79.51,4.11-7,8.07-14.16,12.08-21.25,4.61-9,6.28-19,9-28.62.51-1.87,1.4-3.79,3.54-3.49,1.59.22,2.09,2.12,1.66,3.65-4.38,15.75-7.43,32-17.05,45.79A3.06,3.06,0,0,1,649,45.33C656.12,31,662.86,16.62,665.82.75c-1.72-.32-1.9.66-2.06,1.37a133.71,133.71,0,0,1-10.11,28.57c-3,6.2-6.77,12-10.14,18-.61,1.08-2.3,2.14-1.19,3.46,1.52,1.81,2.49-.63,3.78-.9A9.74,9.74,0,0,1,648.05,51.22Z" transform="translate(-589.65 19.3)"/><path class="cls-5" d="M620.16,13.41c1.91.78,2.71-1.75,4.88-1.44a14.31,14.31,0,0,1-3.73,9.28c-3.75,4.2-4.78,10-4.08,15.77.25,2,1.41,3.9,4.1,2.87,1.4-.54,1.79-.1,1.55,1.26l-3.51,5.24-3-.68c-4.44-4.66-5.13-9.86-3-15.89,1.77-4.91,2.49-10.19,5.23-14.77a1.73,1.73,0,0,0,1.5-1.63ZM614.75,36.8l4.07-14.73L617,21.68c-.87,5-4.66,9.45-2.34,15.14l0,1.36.41-.14C615,37.62,614.89,37.21,614.75,36.8Z" transform="translate(-589.65 19.3)"/><path class="cls-5" d="M669.6,18.76C667.66,26,666,33.53,660.62,39c-4.07,4.14-7.19,9.34-12.53,12.2.43-4,3.93-6.15,6.25-8.67a54.65,54.65,0,0,0,13.75-26.36c1-4.95,4-9.49,3-14.87-.2-1,.92-1.35,1.71-1.19,1.63.35,1.34,1.64,1,2.79C672.45,8.18,671,13.47,669.6,18.76Z" transform="translate(-589.65 19.3)"/><path class="cls-4" d="M662.62-1.79c-2.76,9.62-4.43,19.58-9,28.62l-2.7-.78c2.06-7.45,4.06-14.92,6.2-22.35.87-3,1.66-5.94.39-9C660-5.37,660.89-2.93,662.62-1.79Z" transform="translate(-589.65 19.3)"/><path class="cls-5" d="M634.35,22.06c1.09,5.42-3.5,8.14-5.77,11.94-.65,1.1-2,1-3,0-1.17-1.29-3.2-2.08-2.6-4.4.86-3.35,1.35-6.85,3.66-9.66A16.3,16.3,0,0,1,634.35,22.06Z" transform="translate(-589.65 19.3)"/><path class="cls-2" d="M611.75,2.82c.53-2,1-4,1.58-6,1.47-2.52,4.4-2.63,6.57-4,1.78-1.12,1.62.94,2.4,1.48-1.18,2.82-.36,4.78,2.52,5.86h0c-.65,2.05-1.3,4.1,1.84,4.64-.08.3-.15.6-.22.9a2.15,2.15,0,0,1-2.26.48c-1.67-.19-3.27-1.64-5-.32h0C616.59,5.1,614.55,3.05,611.75,2.82Z" transform="translate(-589.65 19.3)"/><path class="cls-5" d="M641.56,11c1.36,5.86,4.42,11,6.71,16.51l-2.1,4.6c-1.44-1.73.34-4.79-2.45-6a5.69,5.69,0,0,0,.23-1.45c-.22-2.12-.46-5.12-2.5-5.35-2.2-.25-1.6,3-2.37,4.58a15.67,15.67,0,0,0-.79,2.84c-2.23,5.76-5.11,11.08-10.35,14.73L626,41c4.55-5.28,9.3-10.31,11.63-17.23,1.11-3.31,2.26-6.43,2.11-9.94C639.65,12.44,638.89,10.56,641.56,11Z" transform="translate(-589.65 19.3)"/><path class="cls-5" d="M642.48-7.54c.41,3.22-.63,6.21-1.35,9.27-.52,2.22-2,2.17-3.73,2.38-2.18.27-2.56-1-2.57-2.66,0-.57.54-1.23-.21-1.68-3.45-2.08-3.51-2.16-1.81-5.79a20.65,20.65,0,0,1,2-2.86A16.63,16.63,0,0,0,642.48-7.54Z" transform="translate(-589.65 19.3)"/><path class="cls-4" d="M602.61-1.8c1-1.82,3.46-2.66,3.58-5.12C607.42-5,612.52-9,611.35-3.49,610-.07,610,3.59,609.59,7.16c-.54,4.84-2.82,6.69-8.12,6.25-.21-1.77-.41-3.53-.61-5.3,1.71-.18,3.28,2.31,4.9.65C609.35,5.07,607.64-.36,602.61-1.8Z" transform="translate(-589.65 19.3)"/><path class="cls-6" d="M634.35,22.06a16.3,16.3,0,0,0-7.71-2.14c.14-1,.23-2,.42-2.93.9-4.46,4.8-4.84,7.74-4.15,2.7.64,1.8,3.94,1.22,6.29A4.32,4.32,0,0,1,634.35,22.06Z" transform="translate(-589.65 19.3)"/><path class="cls-6" d="M642.48-7.54a16.63,16.63,0,0,1-7.72-1.34c.33-.55.54-1.28,1-1.61,1.73-1.21,2.06-5.07,4.89-3.69C643-13.06,642.88-10.06,642.48-7.54Z" transform="translate(-589.65 19.3)"/><path class="cls-4" d="M626,41l2,.49c-.27,1-.53,1.95-.8,2.92h0c-2.67.36-4.34,4.59-7.76,2q1.74-2.62,3.5-5.24Z" transform="translate(-589.65 19.3)"/><path class="cls-5" d="M650.08-1.07c.78,0,1.75-.27,2.3.09s.07,1.16-.47,1.56c-2.69,2-5.39,3.94-8.08,5.91C641.62.42,648.08,1.52,650.08-1.07Z" transform="translate(-589.65 19.3)"/><path class="cls-5" d="M624.19-5.15c.18-.64.32-1.3.54-1.92.39-1,.42-2.45,2-2.33a1.19,1.19,0,0,1,1.16,1.33c-.14,1.65-.17,3.49-1.73,4.45s-1.18-1.16-2-1.49Z" transform="translate(-589.65 19.3)"/><path class="cls-4" d="M626.67,4.85c-3.14-.54-2.49-2.59-1.84-4.64C628,.73,627.32,2.8,626.67,4.85Z" transform="translate(-589.65 19.3)"/><path class="cls-4" d="M624.82.2c-2.88-1.08-3.7-3-2.52-5.86l1.89.51,0,0C623-3.19,625.3-1.65,624.82.2Z" transform="translate(-589.65 19.3)"/><path class="cls-5" d="M643.86,6.47c-.27.79-.63,1.49-1.56,1.67C642.6,7.38,642.94,6.66,643.86,6.47Z" transform="translate(-589.65 19.3)"/><path class="cls-4" d="M691.12,75.55c3.67,2.74,9.33,2.4,11.53,7.43,1.6,7.24,3,14.46-1.77,21.18-1.54,2.06-4.16,3.26-4.78,6-.63,2.14-1,4.27-3.33,5.59a9.23,9.23,0,0,0-4,5.8h0a27.1,27.1,0,0,0-9,10h0c-2.38-.35-3.15,1.4-4,3.06h0c-3.51.29-4.71,2.9-5.72,5.7h0c-1.91-.51-2.68,1-3.71,2.09h0l-2-.46c.7-3.08,1.7-5.42,5.1-7.13,2.48-1.24,6.67-2,6.86-6.25,2-4.16,5.7-7,8.64-10.28,6.72-7.48,11.82-15.25,13.95-25.35,1.19-5.65.43-8.84-4.53-11.54C692.55,80.28,689.84,78.87,691.12,75.55Z" transform="translate(-589.65 19.3)"/><path class="cls-2" d="M708.21,100c-1-2.35-.49-4.64,1.92-5.13s3.88.76,4.17,3.85c.23,2.38,2.18,4.59,4.06,8.23L708,104.05l-.56-1.11.81-3,.33-.33Z" transform="translate(-589.65 19.3)"/><path class="cls-2" d="M736.42,136.79c-5.46-2.13-9.32-9.61-8.11-15.71a1.83,1.83,0,0,1,2.44,1.68C731.56,127.89,734.51,132.12,736.42,136.79Z" transform="translate(-589.65 19.3)"/><path class="cls-5" d="M700.88,104.16c4.73-6.72,3.37-13.94,1.77-21.18a5,5,0,0,1,2.78,4.77c0,2.24,1.17,3.65,2.71,5-1.54,2.39-2.26,5.12-3.31,7.71C704.18,102,703.58,104.4,700.88,104.16Z" transform="translate(-589.65 19.3)"/><path class="cls-5" d="M688.77,121.59a9.23,9.23,0,0,1,4-5.8c2.3-1.32,2.7-3.45,3.33-5.59,2,.51,1.46,2,1.27,3.35-1.43,3.82-5.77,5-7.66,8.33C689.39,121.79,689.08,121.7,688.77,121.59Z" transform="translate(-589.65 19.3)"/><path class="cls-5" d="M707.84,105.06l10,4.33c-4,1.93-7.82.14-9.95-4.33Z" transform="translate(-589.65 19.3)"/><path class="cls-2" d="M728.53,120.12c-1.45-.61-3.72-.33-3.26-3C726.71,117.73,729,117.41,728.53,120.12Z" transform="translate(-589.65 19.3)"/><path class="cls-2" d="M739.73,139.79c-1.48-.59-3.75-.3-3.31-3C737.89,137.38,740.13,137.13,739.73,139.79Z" transform="translate(-589.65 19.3)"/><path class="cls-5" d="M707.4,102.94l.56,1.11-.12,1h0c-.86-.32-2.16-.29-2.21-1.43S706.65,102.8,707.4,102.94Z" transform="translate(-589.65 19.3)"/><path class="cls-5" d="M721.69,107.57c-.32.21-.7.68-1,.64-.63-.07-.54-.61-.19-1a7.09,7.09,0,0,1,1.11-.73Z" transform="translate(-589.65 19.3)"/><path class="cls-4" d="M700.53,116.52l1.23-.69h0l-1.23.7Z" transform="translate(-589.65 19.3)"/><path class="cls-4" d="M720.53,299.31l.51-1.87h0c-1.82-1.92-3.29-4-2.29-6.83-2.21-.62-2.94-2.66-3.53-4.38a6,6,0,0,0-4.33-4.16,67.8,67.8,0,0,1,2.57,7.47,4.08,4.08,0,0,1,.87,3.29c.54,2.21,1,4.46,1.41,6.72C717.29,299,719.09,300.71,720.53,299.31Z" transform="translate(-589.65 19.3)"/><path class="cls-2" d="M728.86,59.12l-2,.45c-6.24-2.39-7.38,3.4-10.25,6.41h0c-2.36.67-4.85-1.54-7.31.62-.94.83-2.56-.1-2.68-1.87-.35-5.09-3.32-10.74,3.13-14.37,1.32-.73,1.36-2.2,1.73-3.46h0c5.16,1.47,7.47-2.16,9.94-5.53l1-.51c4.39-1.69,7.11-5,8.86-9.21,2.12-1.3.72-2.71.13-4.1,1.42-4.7-.86-6.86-5.21-7.6C722.6,16,718,14.7,712.9,14.11c-2.61-.31-4.47.15-5.55,2.66-3.81-1-4-3-1.56-5.71l.25-.86c2.15.18,3-.56,1.79-2.63,4-2.72,4.17-5.93,1.43-9.69C708.43-3.26,707-4.19,707.32-6c5.54-2.14,8.27,2.46,11.33,5.28,1.87,1.73,3.82,3.56,5.62,5.45.45.46,1.54.94,1.48,1.18-1.83,6.66,5.19,6.12,7.64,9.27,2.64,3.39,6.09,6.16,9.18,9.2-.43,1.78,1.13,2,2.06,2.9,4.88,4.58,4.76,8.37-.55,12-2.07,1.42-2.37,3.43-3,5.46h0a1.78,1.78,0,0,0-2.47,1.39C735,50.24,729.34,52.71,728.86,59.12Z" transform="translate(-589.65 19.3)"/><path class="cls-4" d="M705.79,11.06c-2.41,2.7-2.25,4.71,1.56,5.71-.42,3.56-3.27,4.88-5.83,6.62-1.57,1.08-4,.33-4.94,2.6l-7.8-1.84c-.62-1.6.64-2.67,1.09-4l3.4-1.13c.37-1.43,2.66-.52,2.76-2.27,1.65-1.26,3.7-2.23,4.86-3.84C702.28,11,703.66,10.4,705.79,11.06Z" transform="translate(-589.65 19.3)"/><path class="cls-5" d="M705.79,11.06c-2.13-.66-3.51,0-4.9,1.88-1.16,1.61-3.21,2.58-4.86,3.84a1.87,1.87,0,0,1,.66-3.2c5.42-2.34,1.94-4.12-.27-6-.35-1.93-4.08-2.94-1.53-5.66,2.69.89,2.85,3.94,4.75,5.56,1.33,1.15,2.46,1.49,4,.47,1.84-1.24,1-2.59.12-3.81s-2.13-2.53-3.2-3.79c-.21-1.46-1.47-2.71-.88-4.33,2.78.44,3.57,2.55,4.24,4.87A4.41,4.41,0,0,0,707,3.82a1.9,1.9,0,0,0,1.65-.77c.84-1.68-.46-2.74-1.4-3.85-1.51-1.77-3.08-3.49-2.79-6.08l2.89.92c-.34,1.77,1.11,2.7,1.94,3.84,2.74,3.76,2.53,7-1.43,9.69-.59.88-1.19,1.75-1.79,2.63Z" transform="translate(-589.65 19.3)"/><path class="cls-4" d="M741.11,44.81c.6-2,.9-4,3-5.46,5.31-3.66,5.43-7.45.55-12-.93-.86-2.49-1.12-2.06-2.9,4.58,1.16,7.2,4.92,10,8.14,2.41,2.77-2.15,4.71-1.91,7.47-1.46-.45-2.25.92-3.41,1.27-.16-.75-.46-.88-1-.24h0c-2.09.2-2.7,1.7-3,3.46A2.18,2.18,0,0,1,741.11,44.81Z" transform="translate(-589.65 19.3)"/><path class="cls-2" d="M694.89,1.9c-2.55,2.72,1.18,3.73,1.53,5.66-.75.32-1.84,1.12-2.19.87-3.17-2.2-2.34-6.25-3.83-9.3-.27-.57,2.44-3.22,5.05-2.63.31.07.86-.85,1.3-1.32l2.89.82c-.59,1.62.67,2.87.88,4.33C699,2.05,696.64.93,694.89,1.9Z" transform="translate(-589.65 19.3)"/><path class="cls-4" d="M699.64-4l-2.89-.82c1.33-5.28,5.26-.84,7.68-2.06-.29,2.59,1.28,4.31,2.79,6.08.94,1.11,2.24,2.17,1.4,3.85a1.9,1.9,0,0,1-1.65.77A4.41,4.41,0,0,1,703.88.87C703.21-1.45,702.42-3.56,699.64-4Z" transform="translate(-589.65 19.3)"/><path class="cls-6" d="M691.46,15.56l-5.93-9c2.53-.48,2.78,1.62,3.87,2.4h.06c.3,1.29-.31,3,1.54,3.58C691.15,13.55,691.3,14.55,691.46,15.56Z" transform="translate(-589.65 19.3)"/><path class="cls-5" d="M691,12.54c-1.85-.62-1.24-2.29-1.54-3.58C692.11,9.24,691.27,11,691,12.54Z" transform="translate(-589.65 19.3)"/><path class="cls-1" d="M682.2,209c.41-1.11,1-2.18,2.32-2.1,1.13.06,1,1,.87,1.86C684.3,208.5,683.38,210.52,682.2,209Z" transform="translate(-589.65 19.3)"/><path class="cls-2" d="M687.62,227l-.35.34.34-.36Z" transform="translate(-589.65 19.3)"/><path class="cls-1" d="M691.12,75.55c-1.28,3.32,1.43,4.73,3.39,5.8,5,2.7,5.72,5.89,4.53,11.54-2.13,10.1-7.23,17.87-13.95,25.35-2.94,3.27-6.65,6.12-8.64,10.28-2.36-.9-4.58-.9-6.39,1.14a17.79,17.79,0,0,1-9,5.62c-2.36.61-4,1.75-4,4.79,0,1.68-1.23,3-3.72,3-5.41.05-9.71,3.73-14.68,5.38-1.3.44-.53,1.71-.54,2.63-3.12-1.21-6.87-.77-9.4-3.56,2.53-2.14,1.39-4.16-.19-6.16s-4.24-2.26-6.54-3c.18-1.69,1.58-3.3.34-5.08.86-2.27.21-3.33-2.32-2.85,0-.24.1-.48.17-.72.71-5.13-1.32-10.39.19-15.37,1.17-3.84-.32-5.37-3.49-6.42v0a2.17,2.17,0,0,0-.36-2.24c.2-1.33,1.08-2.62.15-4-.77-2.16,1.48-4.94-1.35-6.68l0,0,1-3.86c-2.56-4-1.94-8.7-2.56-13.11,1.74-4.34.47-10.66-2.65-13.2.18-.62.36-1.23.55-1.85,1.85-3.34.54-5.78-2-8.21-1.11-1.08-2.91-3.27-.69-4.51a3.63,3.63,0,0,1,4.95,2.08c1.35,5.05,4.56,4,7.68,2.62s7.33-2.45,5.08-7.69c-.33-.75.3-1.91.49-2.89h0c3.62.05,2,4.65,4.72,5.47-.35,1.28-.7,2.57-1.06,3.85-.17,1.83-.36,3.84,1.81,4.56,3.27,1.08,6.6,2,9.95,2.74,2.33.53,3.17-1.13,3.65-3,.1-.32.2-.63.29-1,2,.64,3.81.59,4.63-1.84h0a18.81,18.81,0,0,0,12-13.3h0c3.14.26,2.44-2.53,3.22-4.11,1.32-2.66,3.45-4.32,6.32-3.45,2.59.79,4.63,2.78,4.3,5.92a14.41,14.41,0,0,1-2.09,5.51c-2.42,4.27-2.26,13.16-.13,15.51,3.35,3.69,7.51,6.27,11.69,8.85a11.64,11.64,0,0,0,4.94,4.51C691.26,74.92,691.19,75.23,691.12,75.55Z" transform="translate(-589.65 19.3)"/><path class="cls-2" d="M627.14,44.37c-.19,1-.82,2.14-.49,2.89,2.25,5.24-1.93,6.28-5.08,7.69s-6.33,2.43-7.68-2.62a3.63,3.63,0,0,0-4.95-2.08c-2.22,1.24-.42,3.43.69,4.51,2.5,2.43,3.81,4.87,2,8.21a7.41,7.41,0,0,1-4.74-6.14,11.2,11.2,0,0,0-4-6.65c-2.5-2.23-4.59-4.71-4.18-8.4,1.25-1.49,4.06.93,4.76-1.91,3.22-2.25-1-4.11-.33-6.22,1.29-4.64,2.61-9.27,3.86-13.91.52-1.93,1.14-3.41,3.7-2.73,2.33.62,2.84,1.85,2.17,4A79.62,79.62,0,0,0,609.3,40.7c-.17,3.69,3,3.42,4.1,5.47.73,1.42,2.21,1.27,3-.46l3,.68C622.8,49,624.47,44.73,627.14,44.37Z" transform="translate(-589.65 19.3)"/><path class="cls-4" d="M603.47,39.87c-.7,2.84-3.51.42-4.76,1.91-.83-.53-1.62-1.14-2.49-1.59-4.8-2.48-5.79-5.52-3.94-12.27,1.61-5.82,4.89-8.34,10.41-8-.76,2.9-1.45,5.82-2.29,8.69C599.11,33.05,600.31,36.71,603.47,39.87Z" transform="translate(-589.65 19.3)"/><path class="cls-2" d="M611,64.82c3.12,2.54,4.39,8.86,2.65,13.2C609.18,74.31,608.59,71.37,611,64.82Z" transform="translate(-589.65 19.3)"/><path class="cls-4" d="M615.28,95c2.83,1.74.58,4.52,1.35,6.68-.63,1.78-1.45,1-2.27.18C615.08,99.64,614.12,97.19,615.28,95Z" transform="translate(-589.65 19.3)"/><path class="cls-4" d="M616.25,91.13l-1,3.86c-1-.36-1.67-.95-1.43-2.15A1.88,1.88,0,0,1,616.25,91.13Z" transform="translate(-589.65 19.3)"/><path class="cls-4" d="M700,66.5l-4.57.91-3.19-.87-3-3c-.65-1.32-1-2.9-2-3.88-1.15-1.16-2-4.13-3.73-3-2.15,1.44,1.5,2.75,1.29,4.52-.66,1.48.72,2.33,1.09,3.49l0,0c-4.58-1.19-6.46-4.21-5.84-8.81.18-1.34.6-2.53-1-3.44-3.36-1.94-1.18-4.71-.22-6.45,1.69-3,2,1.18,3.51,1.2,2.44,0,3.28,1.45,3.45,4.22.31,5.05,5.44,6.3,8.68,9,0,0,.81-.86,1.24-1.32l3.77,1.06C700.45,62.23,700.24,64.37,700,66.5Z" transform="translate(-589.65 19.3)"/><path class="cls-4" d="M711.43,46.9c-.37,1.26-.41,2.73-1.73,3.46-6.45,3.63-3.48,9.28-3.13,14.37.12,1.77,1.74,2.7,2.68,1.87,2.46-2.16,5,.05,7.31-.62-4.34,2.34-8.69,4.57-13.61,1.45-.07-6-1.6-11.88-.49-17.86,0-.25.11-.49.17-.73Z" transform="translate(-589.65 19.3)"/><path class="cls-5" d="M702.46,49.57c-1.11,6,.42,11.9.49,17.86-2.14,3.39-2.13-.15-3-.93.27-2.13.48-4.27-.53-6.29.75-2.23,0-4.5.19-6.73C699.79,51.74,699.26,49.22,702.46,49.57Z" transform="translate(-589.65 19.3)"/><path class="cls-4" d="M716.57,66c2.87-3,4-8.8,10.25-6.41-1.64,1.81-3.84,3.25-4,6.05a2.36,2.36,0,0,0-2.35.42Z" transform="translate(-589.65 19.3)"/><path class="cls-5" d="M692.22,66.54l3.19.87c.06,3,2.44,5.29,2.34,8.46A14.76,14.76,0,0,1,692.22,66.54Z" transform="translate(-589.65 19.3)"/><path class="cls-5" d="M684.74,61.24c.21-1.77-3.44-3.08-1.29-4.52,1.7-1.14,2.58,1.83,3.73,3,1,1,1.36,2.56,2,3.88Z" transform="translate(-589.65 19.3)"/><path class="cls-4" d="M691.34,74.61a11.64,11.64,0,0,1-4.94-4.51c.26-1,.53-1.93.79-2.89l0,0A10.77,10.77,0,0,1,691.34,74.61Z" transform="translate(-589.65 19.3)"/><path class="cls-4" d="M685.83,64.73a1.85,1.85,0,0,1,1.39,2.46l0,0a1.85,1.85,0,0,1-1.39-2.46Z" transform="translate(-589.65 19.3)"/><path class="cls-3" d="M702.46,49.57c-3.2-.35-2.67,2.17-2.83,3.91-.2,2.23.56,4.5-.19,6.73l-3.77-1.06c.25-.95.51-1.91.77-2.87.57-4,4.24-8.16-.9-11.67h0c.39-1.38.82-2.77-1.09-3.4.55-2-1.57-4.56,1.26-6.1l-1.35-1.21c-1.57-5.46-2.55-6.06-6.25-3.84L684,30v0c2.56-3.59,6.09-4.27,9.93-2.83,1.54.58,2.44.55,3.41-.63l.09,0a3.88,3.88,0,0,0,.76,0l.21.26c.08,7,3.63,13.18,4.81,19.93-.19.71-.38,1.43-.58,2.14C702.57,49.08,702.51,49.32,702.46,49.57Z" transform="translate(-589.65 19.3)"/><path class="cls-3" d="M696.58,26c.89-2.27,3.37-1.52,4.94-2.6,2.56-1.74,5.41-3.06,5.83-6.62,1.08-2.51,2.94-3,5.55-2.66C718,14.7,722.6,16,726.14,20c-.15.58-.31,1.16-.47,1.75l-3-.34c-7.69-5.13-9.49-5.2-14.6-.51-.72.66-1.71,1.27-2,2.11-1.41,3.68-4.26,4.18-7.61,3.81l-.21-.26c0-.12-.07-.25-.11-.37l-.65.33-.09,0Z" transform="translate(-589.65 19.3)"/><path class="cls-3" d="M689.87,20.18c-.45,1.3-1.71,2.37-1.09,4l-5.39,2.53c-1.11.52-2.32,1-3-.43-.58-1.17,0-3,1-2.95C684.72,23.48,686.5,19.66,689.87,20.18Z" transform="translate(-589.65 19.3)"/><path class="cls-4" d="M616.38,45.71c-.77,1.73-2.25,1.88-3,.46-1.06-2.05-4.27-1.78-4.1-5.47A79.62,79.62,0,0,1,612.87,21c.67-2.17.16-3.4-2.17-4-2.56-.68-3.18.8-3.7,2.73-1.25,4.64-2.57,9.27-3.86,13.91-.38-.31-1-.57-1.12-.93-1.85-10.07,6.07-21.27,16.41-23.18,1.09,1.43-1,3.21.46,4.59-.07.31-.15.62-.24.92-2.74,4.58-3.46,9.86-5.23,14.77C611.25,35.85,611.94,41.05,616.38,45.71Z" transform="translate(-589.65 19.3)"/><path class="cls-4" d="M611.75,2.82c2.8.23,4.84,2.28,7.4,3.1-1.36,2.69-4.66,2.9-6.34,2.57C610.36,8,611.33,4.94,611.75,2.82Z" transform="translate(-589.65 19.3)"/><path class="cls-4" d="M619.15,5.91c1.77-1.32,3.37.13,5,.32C622.43,7.45,620.82,6.13,619.15,5.91Z" transform="translate(-589.65 19.3)"/><path class="cls-3" d="M618.65,15.05c.09-.3.17-.61.24-.92l1.26-.71A1.73,1.73,0,0,1,618.65,15.05Z" transform="translate(-589.65 19.3)"/><path class="cls-2" d="M638.07,151.07c0-.92-.76-2.19.54-2.63,5-1.65,9.27-5.33,14.68-5.38,2.49,0,3.72-1.31,3.72-3,0-3,1.69-4.18,4-4.79a17.79,17.79,0,0,0,9-5.62c1.81-2,4-2,6.39-1.14-.19,4.28-4.38,5-6.86,6.25-3.4,1.71-4.4,4-5.1,7.13l-7.9,6.06h0l-1.87-.51c-4.75-1.16-8.57.31-11.56,4.1l-.55,1.85-2.84-.78C639.58,151.71,638.85,151.36,638.07,151.07Z" transform="translate(-589.65 19.3)"/><path class="cls-2" d="M621.94,138.35c2.3.74,4.87.89,6.54,3s2.72,4,.19,6.16c-3.53-.25-7.14-.35-5.81-5.67a2.69,2.69,0,0,0-1.2-2.53C621.75,139,621.85,138.67,621.94,138.35Z" transform="translate(-589.65 19.3)"/><path class="cls-4" d="M621.94,138.35c-.09.32-.19.64-.28,1l-1.1-.3c-2-2.74-1.85-5.63-.6-8.59,2.53-.48,3.18.58,1.86,3.91-.21.6.08.23.17-.18,0-.15.78-.78-.14-.67-.31,0-.62.61-.79,1-.08.18.16.51.76-.16C623.52,135.05,622.12,136.66,621.94,138.35Z" transform="translate(-589.65 19.3)"/><path class="cls-5" d="M639.79,152.62l2.84.78.06.1-.3.88a2.23,2.23,0,0,0-2.2.42C638.23,154.41,638.85,153.55,639.79,152.62Z" transform="translate(-589.65 19.3)"/><path class="cls-3" d="M660.61,148c.59,2.64-3.28,2-3.17,4.34h0a4.22,4.22,0,0,0-4.91,2.78l-2.87-.75a2.11,2.11,0,0,1-1.67-1.54l1.52-1.62h0c2.76-.22,5.6-.27,7.13-3.22h0A5.47,5.47,0,0,0,660.61,148Z" transform="translate(-589.65 19.3)"/><path class="cls-5" d="M649.5,151.17,648,152.79l-3.45,1.1-1.84-.39-.06-.1c.18-.62.36-1.23.55-1.85C645.32,152.07,647.31,149.91,649.5,151.17Z" transform="translate(-589.65 19.3)"/><path class="cls-3" d="M642.69,153.5l1.84.39c-.47,1.23-1,2.34-2.15.49C642.49,154.09,642.59,153.79,642.69,153.5Z" transform="translate(-589.65 19.3)"/><path class="cls-4" d="M616.83,107.91c3.17,1,4.66,2.58,3.49,6.42-1.51,5,.52,10.24-.19,15.37-4.26-3-2.25-7.63-2.35-11.35A88.61,88.61,0,0,0,616.83,107.91Z" transform="translate(-589.65 19.3)"/><path class="cls-4" d="M616.48,105.69a2.17,2.17,0,0,1,.36,2.24A2,2,0,0,1,616.48,105.69Z" transform="translate(-589.65 19.3)"/><path class="cls-3" d="M728.86,59.12c.48-6.41,6.18-8.88,9.79-12.93l1.73,1.42C736.74,51.65,733.41,56,728.86,59.12Z" transform="translate(-589.65 19.3)"/><path class="cls-3" d="M743.31,44.52c.3-1.76.91-3.26,3-3.46A4,4,0,0,1,743.31,44.52Z" transform="translate(-589.65 19.3)"/><path class="cls-4" d="M740.38,47.61l-1.73-1.42a1.78,1.78,0,0,1,2.47-1.39,5.84,5.84,0,0,1-.18.83c-.11.44-.23.88-.34,1.31l-.09.35Z" transform="translate(-589.65 19.3)"/><path class="cls-3" d="M746.31,41.06c.49-.64.79-.51,1,.24A3.78,3.78,0,0,1,746.31,41.06Z" transform="translate(-589.65 19.3)"/><path class="cls-3" d="M740.6,46.94c.11-.43.23-.87.34-1.31C741.54,46.25,741.38,46.68,740.6,46.94Z" transform="translate(-589.65 19.3)"/><path class="cls-2" d="M602.61-1.8c5,1.44,6.74,6.87,3.15,10.56-1.62,1.66-3.19-.83-4.9-.65l-.92-.3c.79-2.89,1.57-5.78,2.36-8.66C602.39-1.17,602.5-1.49,602.61-1.8Z" transform="translate(-589.65 19.3)"/><path class="cls-4" d="M602.3-.85c-.79,2.88-1.57,5.77-2.36,8.66C597.21,4,598.89,1.32,602.3-.85Z" transform="translate(-589.65 19.3)"/><path class="cls-5" d="M701.11,125.93c.17-.6.33-1.2.5-1.8,2-1.16.22-3.35,1.33-4.75,2.87,2.23,1.57,5.73.66,7.48-3.83,7.36-3.18,15.75-6.11,23.25-.79,2-1.33,4.07-3.43,5.15l-.13-.17c.72-6.62,1.88-13.11,5.29-19a5.44,5.44,0,0,0,.13-4.37C701.68,130.32,700.72,127.92,701.11,125.93Z" transform="translate(-589.65 19.3)"/><path class="cls-3" d="M688.77,121.59c.31.11.62.2.94.29a4.19,4.19,0,0,0,2.67,4.83l-2.31,8.8c-1.27.73-2.74.47-2.54-1,.53-3.68-2.27-3.41-4.29-4.17l5.54-8.8Z" transform="translate(-589.65 19.3)"/><path class="cls-5" d="M688.78,121.58l-5.54,8.8a3.15,3.15,0,0,1-3.46,1.16A27.1,27.1,0,0,1,688.78,121.58Z" transform="translate(-589.65 19.3)"/><path class="cls-5" d="M690.07,135.51l2.31-8.8C694.45,130.54,693.63,133.68,690.07,135.51Z" transform="translate(-589.65 19.3)"/><path class="cls-3" d="M702.94,119.38c-1.11,1.4.63,3.59-1.33,4.75-.37-2.53-1.78-4.92-1.08-7.61l1.23-.7A3.3,3.3,0,0,1,702.94,119.38Z" transform="translate(-589.65 19.3)"/><path class="cls-5" d="M670.12,140.28c1-2.8,2.21-5.41,5.72-5.7-.74,2.38-3.43,3.56-3.79,6.18Z" transform="translate(-589.65 19.3)"/><path class="cls-3" d="M701.11,125.93c-.39,2,.57,4.39-1.76,5.8C696.86,128.86,699.86,127.66,701.11,125.93Z" transform="translate(-589.65 19.3)"/><path class="cls-3" d="M670.12,140.28l1.93.48c0,1.05.09,2.11.14,3.16-1.16-.8-2.89.36-3.84-1.12.59-.84,1.19-1.68,1.78-2.53Z" transform="translate(-589.65 19.3)"/><path class="cls-5" d="M675.83,134.59c.82-1.66,1.59-3.41,4-3.06C678.93,133.14,678.25,135,675.83,134.59Z" transform="translate(-589.65 19.3)"/><path class="cls-5" d="M694.06,155.26,693,157.19c-.09-.13-.27-.24-.27-.37a1.66,1.66,0,0,1,1.21-1.73Z" transform="translate(-589.65 19.3)"/><path class="cls-3" d="M752.7,336.14l-2.09.61h0a1.83,1.83,0,0,1-2.46,1.41,2,2,0,0,1-2.53,1.56,4.49,4.49,0,0,1-.13.59c-.31,1.31-1.06,2-2.48,1.67-.25.78-.57,1.49-1.49,1.67-.27.77-.61,1.47-1.49,1.69l-.65.22.52-.44c.5-.54,1-1.08,1.51-1.63a2.17,2.17,0,0,1,1.5-1.66c.22-.61.44-1.21.65-1.82a6.7,6.7,0,0,0-4.22-.15c-.64,1.58-.35,3.62-2.24,4.57a97.8,97.8,0,0,0,8.56,4.92,39.51,39.51,0,0,0,7.25-12.82Z" transform="translate(-589.65 19.3)"/><path class="cls-5" d="M725.83,319c1.61-2.79,2,2.78,3.62.55-1.73-3.46-1.74-7.26-2.2-11v-.06l-.63-1.23c-1.24-2.72,1.59-2.5,2.63-3.52s2.91-1.7.18-2.85a2.34,2.34,0,0,1-2.28.35,3.93,3.93,0,0,1-.68-.15c-.82,1.78-2.2,1.47-3.63,1-3,2-4.88-.23-7-1.68.25,1.4.47,2.81.68,4.21,1,.24,2,.49,3,.75,1.2.32,2.94.39,2.56,2.33s-2.26.29-3.31,1.11a5.43,5.43,0,0,0,4.28,2c2.71-.11,2.17,2.17,2,3.62-.25,2.27-2,1.17-3.06.81-1.41-.48-2.82-.92-4.24-1.35.05.38.09.76.14,1.13.38,2.38.87,4.74,1.45,7.07A5.92,5.92,0,0,0,725.83,319Z" transform="translate(-589.65 19.3)"/><path class="cls-3" d="M722.22,330a4.34,4.34,0,0,0,4.57-.83l-1.88-.53c-1.44-.38-3-.82-3.13-2.58-.17-2.39,1.93-1.3,3-1.86,1.92-1,4.64-1.54,4.66-4.6-1.58,2.23-2-3.34-3.62-.55a5.92,5.92,0,0,1-6.44,3.08c.46,1.85,1,3.69,1.58,5.51C721.37,328.4,721.79,329.18,722.22,330Z" transform="translate(-589.65 19.3)"/><path class="cls-4" d="M753.83,329.13c-1.71,1.15-3.17.45-4.6-.14s-2.73-1.82-4.5-1.1a8.86,8.86,0,0,1-7.08,3.19l-1.21.69c-.62,2-2,1.57-3.43,1.16a1.8,1.8,0,0,1-2.46,1.37c-1.27.41-.94,2.83-2.14,3.32,1.26,1.21,2.54,2.39,3.87,3.54,1.54,1.12,3.12,2.17,4.71,3.2-.54-1.54-2.64-2.79-1.27-4.62.93-1.25,2.4-.11,3.63.12a6.7,6.7,0,0,1,4.22.15l1.93.3a4.49,4.49,0,0,0,.13-.59,2.9,2.9,0,0,1,2.52-1.58,1.79,1.79,0,0,1,2.46-1.39c.91-2.72,3.4-3.77,5.48-5.67,1.75,5.58-.51,8.81-4,12.61a37.83,37.83,0,0,0-4.9,6.36c.88.32,1.78.62,2.67.91,1.52-4.81,4.78-6.83,9.86-5.53,1.09-3.34.3-6.74.15-10.1-.13-2.7,1-3.13,3.18-2.37C761.49,329.77,756.31,327.49,753.83,329.13Z" transform="translate(-589.65 19.3)"/><path class="cls-4" d="M769.23,335.31c1.22,5.77-2.07,10.65-2.89,16.09-1.83-.76.53-2.53-1.31-3.26l-1.66,6c1.72.12,3.43.2,5.14.24q2.54-9.27,5.06-18.55C772.16,335.6,770.84,334.64,769.23,335.31Z" transform="translate(-589.65 19.3)"/><path class="cls-5" d="M773.57,335.85q-2.52,9.27-5.06,18.55l2.11,0q2.63-9.51,5.24-19A2.22,2.22,0,0,0,773.57,335.85Z" transform="translate(-589.65 19.3)"/><path class="cls-5" d="M759.69,345.43c1.09-3.34.3-6.74.15-10.1-.13-2.7,1-3.13,3.18-2.37h0c-1,3.33-1.68,6.68-.7,10.14C762,344.46,761.66,345.89,759.69,345.43Z" transform="translate(-589.65 19.3)"/><path class="cls-4" d="M762.33,343.09c-1-3.46-.3-6.81.7-10.14,1.43.33,2.84.7,2.41,2.7h0C761.9,337.11,765.35,341.44,762.33,343.09Z" transform="translate(-589.65 19.3)"/><path class="cls-5" d="M744.73,327.89a8.83,8.83,0,0,1-7.09,3.19l1.82-2.55c1.47-.21,2.68-1.53,4.32-1Z" transform="translate(-589.65 19.3)"/><path class="cls-4" d="M765.44,335.65a1.55,1.55,0,0,1,.23,2.06c-.07.1-.29.1-.43.15.06-.74.11-1.47.17-2.2Z" transform="translate(-589.65 19.3)"/><path class="cls-5" d="M721.22,165.72c3.7,4.77,4.95,10.41,5.84,16.19l-.06,0c-3.89-4.67-4.82-10.43-6-16.12Z" transform="translate(-589.65 19.3)"/><path class="cls-5" d="M732.05,193.72a6.47,6.47,0,0,1-.06,4.08h0c-3.14-2.9-2.91-7-4.23-10.6,3.09,1.27,2.19,4.77,4.3,6.49Z" transform="translate(-589.65 19.3)"/><path class="cls-5" d="M715,150.57c1.91.63,2.62,2.18,3,4-.05.89.85,2.05-.43,2.58-1.09.45-1.88-.35-2.28-1.3A7,7,0,0,1,715,150.57Z" transform="translate(-589.65 19.3)"/><path class="cls-5" d="M732,197.8c2.46,1.91,3,4.75,3.46,7.64a7.79,7.79,0,0,1-3.48-7.63Z" transform="translate(-589.65 19.3)"/><path class="cls-5" d="M719.74,163.31c-1-1.09-2.11-2.1-1.58-4.29,2.37.95,2.07,2.58,1.57,4.3Z" transform="translate(-589.65 19.3)"/><path class="cls-5" d="M721.05,165.82a1.87,1.87,0,0,1-1.31-2.51h0a1.83,1.83,0,0,1,1.49,2.4Z" transform="translate(-589.65 19.3)"/><path class="cls-5" d="M713.29,147.72l0,.39-.54-.05a.83.83,0,0,1,.18-.35C713,147.66,713.18,147.72,713.29,147.72Z" transform="translate(-589.65 19.3)"/><path class="cls-5" d="M728,182.2c-.24.41-.11,1.24-.94,1-.14-.05,0-.79,0-1.21l.06,0,.92.3Z" transform="translate(-589.65 19.3)"/><path class="cls-5" d="M715.24,149.63l-.27,1C714.36,150.09,714.44,149.76,715.24,149.63Z" transform="translate(-589.65 19.3)"/><path class="cls-4" d="M652.52,155.08a4.22,4.22,0,0,1,4.91-2.78C656.89,155.16,655.25,156.08,652.52,155.08Z" transform="translate(-589.65 19.3)"/><path class="cls-1" d="M669,185.59l-.7,1.15c-.69-1,.23-.91.7-1.15Z" transform="translate(-589.65 19.3)"/><path class="cls-5" d="M837.81,320.61a1.67,1.67,0,0,0-1-2c-1.07-.36-1.58.54-1.65,1.32a37.5,37.5,0,0,1-2.39,8.79c1.12-.81,2.29-1.59,3.5-2.35C836.8,324.44,837.35,322.54,837.81,320.61Z" transform="translate(-589.65 19.3)"/><path class="cls-3" d="M843,321.05c.95-1.08,1.9-2.18,2.83-3.28a5.36,5.36,0,0,0-.29-1.52A7.25,7.25,0,0,0,843,321.05Z" transform="translate(-589.65 19.3)"/><path class="cls-3" d="M823.44,294.68c-.8,3.06-4.28,3.32-5.83,5.6-.25-.09-.52-.17-.78-.24l-1-.3C816.49,295.22,820.42,295.64,823.44,294.68Z" transform="translate(-589.65 19.3)"/><path class="cls-3" d="M819.56,300.82A3.67,3.67,0,0,1,824,300C823,302.54,821.14,301.07,819.56,300.82Z" transform="translate(-589.65 19.3)"/><path class="cls-5" d="M815.84,299.74l1,.3a2,2,0,0,1-2.55,1.41h0A2.14,2.14,0,0,1,815.84,299.74Z" transform="translate(-589.65 19.3)"/><path class="cls-5" d="M814.28,301.45l-1.22.44-.14-.43,1.36,0Z" transform="translate(-589.65 19.3)"/><path class="cls-5" d="M721.05,297.45c-1.83-1.93-3.29-4-2.29-6.85,1.41.86,1.11,2.67,2.08,3.77l.67,1.16v0C721.36,296.2,721.21,296.82,721.05,297.45Z" transform="translate(-589.65 19.3)"/><path class="cls-3" d="M726.48,301.12c-.82,1.78-2.2,1.47-3.63,1v0a1.9,1.9,0,0,0-.44-2.22v0l.26-1h0A7.23,7.23,0,0,1,726.48,301.12Z" transform="translate(-589.65 19.3)"/><path class="cls-3" d="M721.05,297.45c.16-.63.31-1.25.47-1.88,2,.57,1.57,2,1.17,3.38h0L721,297.44Z" transform="translate(-589.65 19.3)"/><path class="cls-3" d="M729.44,300.92a2.34,2.34,0,0,1-2.28.35l2.16-1.74Z" transform="translate(-589.65 19.3)"/><path class="cls-3" d="M721.51,295.53l-.67-1.16.79-.15Z" transform="translate(-589.65 19.3)"/><path class="cls-4" d="M727.26,308.52l-.63-1.23Z" transform="translate(-589.65 19.3)"/><path class="cls-5" d="M722.22,330q.76,1.37,1.59,2.7a3.49,3.49,0,0,1,.56.48,3.72,3.72,0,0,1,.58.9c.64.71,1.3,1.4,2,2.09.59-2.23,2-4.35.89-6.81l-1-.19A4.34,4.34,0,0,1,722.22,330Z" transform="translate(-589.65 19.3)"/><path class="cls-3" d="M727.81,329.32c1.1,2.46-.3,4.58-.89,6.81l1.49,1.49c1.2-.49.87-2.91,2.14-3.32a1.82,1.82,0,0,1,2.45-1.4,3.24,3.24,0,0,1,3.44-1.13l0,0,1.25-.71h0l1.82-2.55C735.32,324.89,731.53,326.52,727.81,329.32Z" transform="translate(-589.65 19.3)"/><path class="cls-5" d="M660.61,148a5.47,5.47,0,0,1-4,0l7.9-6.06,2,.46c-.22.6-.43,1.2-.64,1.81l-2.33,1.49Z" transform="translate(-589.65 19.3)"/><path class="cls-5" d="M670.13,140.27c-.59.85-1.19,1.69-1.78,2.53l-1.93-.44C667.45,141.3,668.22,139.76,670.13,140.27Z" transform="translate(-589.65 19.3)"/><path class="cls-3" d="M663.47,145.66l2.33-1.49C666.8,147.43,664.56,145.65,663.47,145.66Z" transform="translate(-589.65 19.3)"/><path class="cls-5" d="M741.56,163.11c.49.4,1.38.78,1.41,1.23.44,5.35,1.68,10.66,1.08,16.08C741.1,175,740.81,169.11,741.56,163.11Z" transform="translate(-589.65 19.3)"/><path class="cls-5" d="M744,180.39c2.1,3.75,4.42,7.41,5.06,11.79C744.86,189.34,743.4,185.31,744,180.39Z" transform="translate(-589.65 19.3)"/><path class="cls-2" d="M736.55,157.18v.59h-.39Z" transform="translate(-589.65 19.3)"/><path class="cls-5" d="M749.09,192.15a2.15,2.15,0,0,1,.44,2.23A2,2,0,0,1,749.09,192.15Z" transform="translate(-589.65 19.3)"/><ellipse class="cls-5" cx="859.37" cy="267.75" rx="12.07" ry="0.42" transform="translate(-217.27 1044.06) rotate(-74.55)"/><path class="cls-3" d="M646.17,32.08l2.1-4.6a3.58,3.58,0,0,0,2.61-1.43l2.7.78c-4,7.09-8,14.22-12.08,21.25-1,1.69-1.91,0-2.79-.51h0q3.06-5.37,6.1-10.74h0C647,35.76,646.38,33.86,646.17,32.08Z" transform="translate(-589.65 19.3)"/><path class="cls-2" d="M696.44,56.28c-.26,1-.52,1.92-.77,2.87-.43.46-1.22,1.34-1.24,1.32-3.24-2.7-8.37-3.95-8.68-9-.17-2.77-1-4.19-3.45-4.22-1.51,0-1.82-4.25-3.51-1.2-1,1.74-3.14,4.51.22,6.45,1.55.91,1.13,2.1,1,3.44-.62,4.6,1.26,7.62,5.84,8.81a1.85,1.85,0,0,0,1.39,2.46c-.26,1-.53,1.92-.79,2.89-4.18-2.58-8.34-5.16-11.69-8.85-2.13-2.35-2.29-11.24.13-15.51a14.41,14.41,0,0,0,2.09-5.51c.33-3.14-1.71-5.13-4.3-5.92-2.87-.87-5,.79-6.32,3.45-.78,1.58-.08,4.37-3.22,4.11.86-6.47,6.47-11.06,7-17.67a1.48,1.48,0,0,1,1.71-1.42c1.48.32,3.34,1.22,3.48,2.45.7,5.92,4.89,4.89,8.7,4.78l4.09,0,6.25,3.84,1.35,1.21c-2.83,1.54-.71,4.1-1.27,6.1-1.59,1.77-.48,2.66,1.1,3.4h0C694.42,48.6,692.49,52.67,696.44,56.28Z" transform="translate(-589.65 19.3)"/><path class="cls-2" d="M646.17,32.08c.21,1.78.84,3.68-1.39,4.74-.16-.39.81-1.18-.42-1.21l.44,1.21q-3,5.37-6.1,10.74c-2.62-.26-3.49,4.74-6.84,2.28-2.73-.82-1.1-5.42-4.72-5.47.27-1,.53-1.94.8-2.92,5.24-3.65,8.12-9,10.35-14.73,2,1.21,3.54-1.08,5.43-.62C646.51,27.29,644.73,30.35,646.17,32.08Z" transform="translate(-589.65 19.3)"/><path class="cls-2" d="M663.09,41.87a18.81,18.81,0,0,1-12,13.3A40.52,40.52,0,0,1,663.09,41.87Z" transform="translate(-589.65 19.3)"/><path class="cls-2" d="M646.21,58c-.48,1.9-1.32,3.56-3.65,3-3.35-.77-6.68-1.66-9.95-2.74-2.17-.72-2-2.73-1.81-4.56a11,11,0,0,1,4,2.43C638.1,58.75,642.1,59.22,646.21,58Z" transform="translate(-589.65 19.3)"/><path class="cls-2" d="M651.13,55.17c-.82,2.43-2.59,2.48-4.63,1.84C647,53.79,649.09,54.53,651.13,55.17Z" transform="translate(-589.65 19.3)"/><path class="cls-2" d="M637.81,50.48l-.09.45-.15.44C637.16,50.94,637.24,50.64,637.81,50.48Z" transform="translate(-589.65 19.3)"/><path class="cls-4" d="M614.7,36.82c-2.32-5.69,1.47-10.11,2.34-15.14l1.78.39L614.75,36.8Z" transform="translate(-589.65 19.3)"/><path class="cls-4" d="M614.75,36.8c.14.41.28.82.4,1.24l-.41.14c0-.45,0-.91,0-1.36Z" transform="translate(-589.65 19.3)"/><path class="cls-4" d="M643.72,26.1c-1.89-.46-3.46,1.83-5.43.62a15.67,15.67,0,0,1,.79-2.84c.77-1.62.17-4.83,2.37-4.58,2,.23,2.28,3.23,2.5,5.35A5.69,5.69,0,0,1,643.72,26.1Z" transform="translate(-589.65 19.3)"/><path class="cls-3" d="M708.21,100l.33-.34-.33.33Z" transform="translate(-589.65 19.3)"/><path class="cls-3" d="M722.85,302.11a2,2,0,0,1-.44-2.19l-1.88-.61c-1.44,1.4-3.24-.33-4.78.25l.15.86C718,301.87,719.81,304.08,722.85,302.11Z" transform="translate(-589.65 19.3)"/><path class="cls-5" d="M722.43,299.93l-1.9-.62.51-1.87,1.65,1.51Z" transform="translate(-589.65 19.3)"/><path class="cls-5" d="M722.64,21.36l3,.34c3.38.51,2.52,5.13,5.68,5.85.59,1.39,2,2.8-.13,4.1-3.5,2.55-7.25,4.84-8.86,9.21l-1,.51c-4.33,0-6.76,3.45-9.94,5.53h0l-8.8,1.94c.2-.71.39-1.43.58-2.14,6-3.41,12.62-5.77,18.28-9.92,8.79-6.43,8.91-6.83,1.71-14.61A6.82,6.82,0,0,1,722.64,21.36Z" transform="translate(-589.65 19.3)"/><path class="cls-4" d="M711.44,46.9c3.18-2.08,5.61-5.51,9.94-5.53C718.91,44.74,716.6,48.37,711.44,46.9Z" transform="translate(-589.65 19.3)"/><path class="cls-3" d="M722.36,40.86c1.61-4.37,5.36-6.66,8.86-9.21C729.47,35.88,726.75,39.17,722.36,40.86Z" transform="translate(-589.65 19.3)"/><path class="cls-4" d="M731.35,27.55c-3.16-.72-2.3-5.34-5.68-5.85.16-.59.32-1.17.47-1.75C730.49,20.69,732.77,22.85,731.35,27.55Z" transform="translate(-589.65 19.3)"/><path class="cls-4" d="M706,10.2c.6-.88,1.2-1.75,1.79-2.63C709,9.64,708.19,10.38,706,10.2Z" transform="translate(-589.65 19.3)"/><path class="cls-4" d="M694.89,1.9c1.75-1,4.08.15,5.63-1.57,1.07,1.26,2.23,2.46,3.2,3.79s1.72,2.57-.12,3.81c-1.5,1-2.63.68-4-.47C697.74,5.84,697.58,2.79,694.89,1.9Z" transform="translate(-589.65 19.3)"/><path class="cls-4" d="M696.44,56.28c-4-3.61-2-7.68-.9-11.67C700.68,48.12,697,52.32,696.44,56.28Z" transform="translate(-589.65 19.3)"/><path class="cls-4" d="M694.35,33.89l-6.25-3.84C691.8,27.83,692.78,28.43,694.35,33.89Z" transform="translate(-589.65 19.3)"/><path class="cls-4" d="M695.53,44.6c-1.58-.74-2.69-1.63-1.1-3.4C696.35,41.83,695.92,43.22,695.53,44.6Z" transform="translate(-589.65 19.3)"/><path class="cls-4" d="M697.43,26.47l.65-.33c0,.12.08.25.11.37A3.88,3.88,0,0,1,697.43,26.47Z" transform="translate(-589.65 19.3)"/><path class="cls-4" d="M649.5,151.17c-2.19-1.26-4.18.9-6.32.38,3-3.79,6.81-5.26,11.56-4.1-1.29,1.89-4.71.8-5.26,3.73Z" transform="translate(-589.65 19.3)"/><path class="cls-5" d="M649.48,151.18c.55-2.93,4-1.84,5.26-3.73l1.87.51C655.08,150.91,652.24,151,649.48,151.18Z" transform="translate(-589.65 19.3)"/><path class="cls-1" d="M621.36,135.38c-.14-.38-.38-.71-.3-.89.17-.4.48-1,.79-1,.92-.11.17.52.14.67A5.13,5.13,0,0,1,621.36,135.38Z" transform="translate(-589.65 19.3)"/><path class="cls-5" d="M752.7,336.14c.35-.53.61-1.23,1.43-1.06a.84.84,0,0,1,.4.7c-.25.79-1,.72-1.61.75a39.51,39.51,0,0,1-7.25,12.82c.36.18.71.38,1.07.55l.42.15a37.83,37.83,0,0,1,4.9-6.36c3.52-3.8,5.78-7,4-12.61-2.09,1.9-4.57,2.95-5.48,5.67Z" transform="translate(-589.65 19.3)"/><path class="cls-5" d="M739.35,339.86c-1.23-.23-2.7-1.37-3.63-.12-1.37,1.83.73,3.08,1.27,4.62l.12.07C739,343.48,738.71,341.44,739.35,339.86Z" transform="translate(-589.65 19.3)"/><path class="cls-5" d="M748.14,338.15a1.81,1.81,0,0,1,2.48-1.4A1.83,1.83,0,0,1,748.14,338.15Z" transform="translate(-589.65 19.3)"/><path class="cls-5" d="M743.57,340l1.93.3c-.31,1.31-1.06,2-2.48,1.67l-.1-.15C743.14,341.22,743.36,340.62,743.57,340Z" transform="translate(-589.65 19.3)"/><path class="cls-5" d="M745.63,339.72a3,3,0,0,1,2.54-1.59A2,2,0,0,1,745.63,339.72Z" transform="translate(-589.65 19.3)"/><path class="cls-5" d="M743,342c-.25.78-.57,1.49-1.49,1.67l-.11-.16a2.17,2.17,0,0,1,1.5-1.66Z" transform="translate(-589.65 19.3)"/><path class="cls-5" d="M739.91,345.12c.5-.54,1-1.08,1.51-1.63l.11.16c-.27.77-.61,1.47-1.49,1.69Z" transform="translate(-589.65 19.3)"/><path class="cls-5" d="M740,345.34l-.65.22.52-.44Z" transform="translate(-589.65 19.3)"/><path class="cls-3" d="M717.08,306.9l-.17,0c.32,2.34.61,4.67.89,7,1.42.43,2.83.87,4.24,1.35,1,.36,2.81,1.46,3.06-.81.15-1.45.69-3.73-2-3.62a5.43,5.43,0,0,1-4.28-2c1.05-.82,2.92.9,3.31-1.11s-1.36-2-2.56-2.33c-1-.26-2-.51-3-.75.11.74.21,1.48.32,2.22Z" transform="translate(-589.65 19.3)"/><path class="cls-5" d="M733,332.92a3.24,3.24,0,0,1,3.46-1.15C735.82,333.75,734.4,333.33,733,332.92Z" transform="translate(-589.65 19.3)"/><path class="cls-5" d="M730.55,334.3a1.83,1.83,0,0,1,2.47-1.4A1.81,1.81,0,0,1,730.55,334.3Z" transform="translate(-589.65 19.3)"/><path class="cls-5" d="M736.41,331.79l1.25-.71Z" transform="translate(-589.65 19.3)"/><path class="cls-5" d="M722.86,302.12a2,2,0,0,1-.44-2.22A1.9,1.9,0,0,1,722.86,302.12Z" transform="translate(-589.65 19.3)"/><path class="cls-3" d="M644.8,36.82l-.44-1.21c1.23,0,.26.82.42,1.21Z" transform="translate(-589.65 19.3)"/><path class="cls-3" d="M752.7,336.14c.35-.53.61-1.23,1.43-1.06a.84.84,0,0,1,.4.7c-.25.79-1,.72-1.61.75Z" transform="translate(-589.65 19.3)"/></svg>